<?xml version="1.0" standalone="no"?>
<svg version="1.0" xmlns="http://www.w3.org/2000/svg"
 width="1462.000000pt" height="2944.000000pt" viewBox="0 0 1462.000000 2944.000000"
 preserveAspectRatio="xMidYMid meet" style="fill:white;">
<g transform="translate(0.000000,2944.000000) scale(0.100000,-0.100000)"
fill="#000000" stroke="none" style="fill:white;">
<path d="M7071 29388 c-131 -64 -205 -134 -255 -237 -48 -100 -60 -184 -53
-371 9 -240 57 -409 158 -563 83 -127 147 -160 263 -139 145 27 273 123 355
266 139 243 154 510 47 811 -41 115 -81 173 -148 218 -80 52 -123 67 -197 67
-59 0 -77 -6 -170 -52z"/>
<path d="M5750 28493 c-32 -11 -40 -37 -40 -127 0 -50 7 -158 15 -241 9 -82
19 -189 24 -237 10 -103 30 -139 120 -217 98 -85 152 -118 397 -244 346 -178
477 -265 583 -384 57 -63 112 -169 136 -258 19 -71 30 -244 17 -263 -13 -19
-160 37 -381 144 -343 166 -585 324 -1061 694 -118 92 -224 172 -236 178 -11
6 -107 14 -220 18 -168 6 -208 4 -254 -9 -61 -18 -101 -52 -124 -107 -33 -81
-48 -343 -25 -452 13 -59 39 -116 76 -165 37 -48 115 -97 268 -166 77 -35 500
-243 940 -463 832 -415 888 -446 973 -550 64 -77 79 -190 42 -322 -22 -77 -65
-172 -96 -209 l-19 -23 -75 47 c-41 25 -464 278 -940 561 -476 284 -931 560
-1012 613 -280 186 -391 234 -520 227 -64 -4 -90 -11 -150 -41 -134 -67 -253
-199 -309 -342 -34 -87 -34 -268 -1 -374 27 -86 128 -319 149 -342 20 -23 -18
-9 1298 -505 1268 -477 1342 -506 1442 -563 245 -139 333 -324 277 -574 -19
-82 -67 -197 -84 -197 -6 0 -714 309 -1573 687 -859 377 -1598 699 -1642 714
-166 58 -414 86 -523 59 -121 -29 -225 -130 -308 -297 -71 -146 -97 -259 -97
-428 -1 -127 2 -148 27 -225 36 -109 74 -183 150 -295 86 -128 167 -206 239
-234 32 -12 541 -118 1131 -236 1513 -302 2059 -418 2231 -472 178 -56 302
-138 360 -237 99 -169 52 -428 -97 -536 -105 -76 -154 -68 -781 131 -276 88
-907 286 -1402 440 -495 154 -1165 364 -1490 466 -458 143 -603 185 -647 185
-48 1 -71 -6 -150 -44 -192 -93 -350 -205 -439 -313 -54 -65 -120 -193 -137
-265 -43 -184 -9 -384 107 -625 56 -116 200 -345 235 -374 19 -16 158 -32
1511 -171 484 -50 1132 -120 1440 -155 308 -35 709 -78 890 -95 418 -38 545
-55 631 -81 90 -28 117 -42 171 -92 78 -72 113 -166 113 -308 0 -262 -100
-413 -298 -449 -70 -12 -163 -4 -362 35 -69 13 -537 96 -1040 185 -1043 184
-2264 400 -3123 555 -323 58 -596 105 -606 105 -10 0 -47 -32 -83 -72 -223
-252 -374 -501 -433 -718 -38 -136 -45 -319 -17 -450 45 -219 178 -454 319
-565 204 -160 437 -201 903 -160 172 15 725 51 1300 85 184 10 682 33 1105 50
424 16 977 39 1230 50 554 24 681 25 783 4 126 -26 191 -70 241 -163 57 -107
74 -253 46 -396 -19 -100 -53 -173 -105 -225 -80 -80 -180 -104 -376 -89 -265
21 -455 25 -784 18 -190 -4 -718 -8 -1175 -9 -1029 -1 -2173 -15 -2488 -31
-263 -12 -356 -7 -626 37 -293 48 -469 44 -589 -13 -132 -62 -219 -187 -305
-438 -121 -354 -168 -724 -122 -963 44 -228 149 -427 318 -604 69 -72 103 -82
224 -68 48 5 210 21 358 36 722 68 1163 149 2610 483 596 137 715 163 1400
301 622 126 615 124 842 211 302 115 327 122 423 123 74 1 92 -3 135 -26 100
-53 165 -156 209 -333 73 -289 -16 -503 -257 -620 -161 -78 -181 -82 -1152
-225 -264 -39 -871 -129 -1350 -200 -478 -71 -1261 -186 -1740 -255 -1405
-203 -1611 -234 -1636 -244 -66 -24 -251 -162 -345 -256 -141 -140 -221 -265
-274 -430 -13 -38 -33 -91 -46 -117 -22 -43 -24 -60 -24 -188 0 -117 3 -147
18 -178 11 -20 31 -75 47 -122 34 -105 91 -221 158 -320 118 -174 409 -430
490 -430 33 0 609 144 839 210 531 153 1061 337 1933 675 1342 520 1623 625
2122 791 154 52 324 115 377 139 209 98 403 165 477 165 127 0 241 -117 310
-319 57 -164 21 -347 -93 -475 -89 -102 -267 -210 -452 -275 -170 -60 -3788
-1138 -5606 -1671 -135 -40 -261 -81 -281 -92 -20 -11 -46 -37 -57 -57 -24
-42 -105 -436 -123 -591 -14 -130 -6 -380 16 -469 59 -242 235 -389 557 -466
172 -41 331 -56 649 -62 251 -5 303 -3 342 10 25 8 422 222 884 475 1914 1050
2337 1280 3083 1680 118 63 287 162 375 219 285 185 362 211 470 158 89 -43
166 -153 200 -286 21 -81 16 -211 -12 -290 -44 -128 -152 -260 -280 -343 -38
-24 -329 -166 -648 -316 -1076 -506 -1332 -622 -2755 -1252 -509 -225 -972
-433 -1030 -462 -58 -29 -119 -57 -137 -60 -44 -10 -52 -23 -71 -114 -13 -67
-14 -86 -3 -122 30 -100 97 -129 387 -164 461 -56 539 -61 939 -61 349 0 392
2 535 24 349 53 652 151 905 293 124 70 163 97 290 203 227 190 548 431 790
592 171 114 381 235 599 345 249 125 222 123 276 18 54 -106 75 -194 74 -310
-1 -234 -100 -377 -454 -661 -203 -162 -314 -274 -390 -390 l-60 -94 182 -6
c257 -9 360 -38 467 -135 62 -55 124 -176 146 -279 38 -181 38 -200 31 -4985
-4 -2561 -4 -4659 0 -4663 4 -4 30 6 58 22 103 59 177 76 326 76 96 0 158 -5
215 -18 44 -11 289 -88 543 -173 433 -144 469 -154 539 -154 175 0 312 124
358 324 22 93 37 313 31 431 -3 55 -13 215 -21 355 -8 140 -19 388 -25 550 -6
162 -26 644 -45 1070 -19 426 -50 1169 -70 1650 -19 481 -42 1019 -50 1195 -8
176 -22 514 -30 750 -8 237 -22 564 -30 728 -8 165 -20 455 -25 645 -12 436
-18 590 -35 927 -8 149 -19 423 -25 610 -12 366 -21 446 -70 590 -53 155 -37
253 52 329 92 79 204 112 440 131 147 11 174 16 224 40 41 20 64 40 84 72 30
47 56 141 43 154 -5 4 -46 24 -92 44 -134 57 -408 200 -506 263 -108 70 -232
197 -270 278 -61 130 -48 275 39 413 93 147 205 120 605 -149 116 -78 276
-174 366 -221 96 -50 188 -105 230 -140 127 -104 267 -189 517 -313 431 -216
755 -328 1153 -400 265 -48 361 -57 660 -63 329 -6 516 7 815 58 333 56 402
97 391 234 -6 73 -72 160 -150 200 -25 12 -468 217 -983 454 -2342 1077 -3226
1485 -3321 1532 -153 77 -259 150 -358 247 -121 120 -144 170 -144 307 0 87 4
108 28 164 66 149 161 262 250 296 111 42 235 1 426 -143 153 -116 274 -187
618 -365 293 -152 1216 -640 2683 -1420 905 -481 1030 -543 1206 -602 190 -64
286 -79 499 -79 170 0 202 3 300 26 122 29 256 77 306 111 44 29 61 60 124
229 121 322 168 531 168 743 1 104 -4 146 -21 208 -64 227 -209 388 -461 512
-100 50 -178 76 -431 145 -102 28 -322 92 -490 141 -168 50 -1056 311 -1975
580 -2987 877 -2779 813 -2966 910 -148 77 -272 204 -320 327 -27 71 -37 211
-19 291 28 128 119 269 204 314 32 17 58 22 121 21 96 0 149 -17 355 -114 173
-81 207 -94 555 -209 454 -150 833 -291 1710 -636 1431 -563 1856 -708 2732
-934 172 -45 324 -81 337 -81 53 0 270 176 401 327 148 168 242 332 292 504
24 85 27 110 27 259 1 150 -2 173 -26 257 -47 160 -112 267 -247 407 -95 97
-248 219 -328 260 -90 45 -185 64 -783 151 -322 47 -1028 151 -1570 230 -542
79 -1347 198 -1790 264 -443 66 -978 145 -1190 176 -212 31 -421 65 -465 77
-224 56 -380 201 -415 387 -32 170 16 421 100 523 77 93 179 101 388 33 161
-52 255 -75 492 -120 176 -33 1626 -326 3744 -754 626 -127 1154 -231 1174
-231 43 0 117 43 238 136 255 197 380 447 391 784 5 173 1 202 -118 761 -74
349 -85 388 -103 393 -12 2 -1231 6 -2711 7 -2119 2 -2721 -1 -2835 -11 -395
-35 -641 43 -812 255 -52 65 -129 213 -149 285 -36 137 51 248 243 311 l73 24
540 -1 c297 -1 635 -7 750 -13 360 -19 876 -30 1860 -41 523 -6 1092 -17 1265
-25 333 -16 483 -11 635 20 239 50 440 160 614 336 112 114 106 82 76 432 -14
166 -33 352 -41 413 -26 203 -88 369 -176 469 -51 58 -155 126 -248 163 -193
76 -281 76 -680 -1 -162 -31 -585 -108 -940 -171 -355 -63 -1104 -198 -1665
-300 -1314 -239 -1817 -326 -1874 -326 -71 0 -169 19 -210 40 -108 55 -171
195 -171 382 0 151 32 249 107 319 49 47 100 72 210 104 98 29 220 45 1053
140 316 36 942 110 1390 165 448 55 1067 129 1375 165 374 45 571 72 594 83
27 12 41 31 66 86 87 189 173 471 196 643 16 121 7 302 -19 375 -56 158 -190
280 -402 368 -88 37 -326 100 -375 100 -19 0 -396 -119 -838 -264 -441 -146
-1234 -406 -1762 -580 -528 -173 -1027 -338 -1110 -367 -146 -51 -153 -53
-265 -53 -129 -1 -152 7 -216 71 -71 71 -130 240 -122 348 8 90 41 157 109
218 174 158 361 210 2379 668 831 188 913 209 1047 260 122 48 219 105 386
228 96 71 129 101 136 125 5 17 13 157 16 311 11 449 -24 643 -137 754 -46 46
-96 69 -177 83 -127 22 -371 -19 -542 -91 -38 -16 -183 -92 -322 -169 -1028
-571 -1740 -899 -2462 -1135 -285 -93 -452 -140 -468 -134 -43 16 -54 285 -17
402 82 260 237 379 686 526 315 103 773 265 1462 518 332 121 606 221 610 221
5 0 28 13 53 28 37 24 60 55 147 201 126 209 158 276 178 372 47 218 -53 435
-264 575 -84 56 -160 77 -262 71 -123 -7 -207 -42 -372 -154 -164 -111 -263
-172 -508 -311 -213 -120 -374 -215 -1103 -650 -291 -173 -537 -316 -546 -319
-13 -3 -26 14 -53 74 -91 195 -74 392 43 513 71 73 193 142 674 384 259 129
526 268 595 307 156 89 449 274 531 336 132 100 258 296 280 439 14 86 -3 188
-46 279 -40 84 -137 206 -212 269 l-67 55 -40 -33 c-150 -122 -799 -634 -903
-713 -291 -220 -539 -358 -836 -464 -59 -22 -110 -39 -112 -39 -9 0 -25 107
-25 168 0 134 52 262 145 355 56 56 198 148 405 262 463 256 669 480 734 797
17 80 22 298 8 298 -18 0 -191 -63 -480 -174 -715 -275 -809 -300 -1127 -300
-201 0 -308 17 -472 75 -188 66 -324 147 -556 327 -217 168 -253 190 -297 175z"/>
</g>
</svg>
