<svg xmlns="http://www.w3.org/2000/svg" xmlns:xlink="http://www.w3.org/1999/xlink" width="512px" height="200px" viewBox="0 0 512 200" version="1.1" preserveAspectRatio="xMidYMid"><g><path d="M351.14 17.697L351.026 16.6 349.249 16.752 349.362 17.848 351.14 17.697 351.14 17.697ZM363.089 46.435L363.127 47.04 364.375 46.927C364.337 46.549 364.488 45.944 364.753 45.188L364.639 44.091C364.11 44.129 363.58 44.923 363.089 46.435L363.089 46.435ZM316.464 82.623C316.389 81.602 313.212 77.632 306.935 70.636 306.822 69.351 308.977 67.422 313.401 64.889L326.031 53.885C328.867 50.292 330.531 44.469 331.023 36.377L330.871 34.524C330.38 28.928 326.334 24.428 318.658 20.987 314.12 17.924 305.952 16.222 294.154 15.92 284.398 16.752 271.655 20.23 255.962 26.394 251.651 29.495 246.736 32.596 241.215 35.696L241.29 36.642C241.631 36.604 242.16 36.415 242.765 35.999 243.408 35.923 243.786 36.226 243.824 36.831L244.769 36.339 245.223 36.301 245.261 36.717C245.299 37.209 241.895 39.894 235.013 44.696L235.543 45.679 235.089 45.717 233.954 45.301C233.992 45.641 233.501 45.868 232.555 45.944L232.593 46.36 233.69 47.721C233.35 47.759 232.82 47.608 232.102 47.343 230.513 47.494 228.963 48.326 227.413 49.914L228.056 47.116C230.362 37.171 231.95 28.36 232.782 20.722L232.669 20.23C231.081 19.209 229.53 17.772 228.093 15.957 228.131 14.785 228.131 14.105 228.093 13.953L227.98 13.537 227.526 13.651C222.535 21.138 212.93 33.919 198.674 51.994 187.822 64.851 182.225 71.998 181.885 73.435 177.461 78.01 175.343 80.771 175.57 81.716 174.398 82.472 173.906 83.228 174.095 84.06 173.755 84.136 173.528 84.023 173.452 83.682 171.562 86.745 168.763 88.711 165.02 89.581L161.087 90.489C160.558 90.602 160.293 90.98 160.331 91.623L160.444 92.115 161.919 91.774 162.033 92.19 158.705 93.476 152.806 94.837 149.705 95.026C149.251 95.48 152.163 94.989 151.029 95.253L147.172 96.161C144.827 96.69 143.542 96.501 143.315 95.556L142.861 95.669C142.937 96.085 142.974 96.388 142.899 96.652L142.672 95.707 139.571 96.425C139.344 94.989 135.147 89.77 127.017 80.771 126.866 79.031 129.739 76.497 135.601 73.208L152.163 58.649C155.869 53.885 158.062 46.246 158.781 35.734L158.554 33.276C157.911 25.865 152.541 19.89 142.445 15.277 136.47 11.231 125.731 9.075 110.228 8.735 97.371 9.832 80.581 14.407 59.935 22.386 54.263 26.507 47.797 30.591 40.537 34.637L40.65 35.923C41.142 35.885 41.784 35.621 42.578 35.167 43.41 35.091 43.864 35.469 43.94 36.226L45.225 35.507 45.868 35.469 45.906 36.074C45.944 36.679 41.444 40.196 32.331 46.624L33.049 47.759 32.407 47.797 31.007 47.305C31.045 47.683 30.402 47.948 29.079 48.061L29.154 48.742 30.667 50.406C30.176 50.444 29.495 50.292 28.625 49.99 25.676 50.255 22.802 52.372 19.966 56.381L20.684 57.515C23.142 55.246 24.579 54.112 24.995 54.074L25.146 55.927C24.73 55.965 24.087 56.229 23.218 56.683L24.768 59.028C27.755 55.813 31.045 53.053 34.638 50.746 36.415 51.2 37.36 51.767 37.398 52.372L38.759 52.259C48.515 45.036 58.158 39.818 67.725 36.604L67.838 37.889C66.061 40.536 64.851 41.898 64.208 41.973 64.284 42.881 64.586 43.675 65.153 44.356 65.305 45.982 60.956 56.948 52.145 77.216 32.142 124.332 15.352 159.196 1.702 181.734 1.739 182.187 2.004 182.792 2.496 183.549 5.861 182.755 7.979 181.923 8.886 181.128L9.605 181.053 9.718 182.339 10.966 182.225 12.252 181.507C12.29 181.885 12.706 182.074 13.575 181.998L13.689 183.284C13.802 184.532 13.084 186.422 11.571 189.032 10.21 190.582 8.735 193.834 7.185 198.788L7.222 199.393 8.47 199.279C13.916 193.191 18.037 187.216 20.873 181.393 36.755 176.742 48.856 172.167 57.25 167.667 65.683 166.948 72.111 164.717 76.498 161.049L76.422 160.369 73.246 161.314 72.527 161.39 72.451 160.709C78.653 159.764 82.926 158.402 85.308 156.512 97.371 147.209 106.484 140.63 112.648 136.735 125.315 127.433 133.559 118.357 137.302 109.547 137.983 109.396 138.663 109.244 139.42 109.055 141.197 108.98 142.18 108.942 142.445 108.866 142.369 108.526 142.521 108.337 142.861 108.261 145.697 107.959 144.336 108.45 146.151 108.034L150.915 106.938C150.613 107.013 150.499 107.165 150.575 107.467L151.293 107.013C151.142 107.013 151.029 106.976 150.915 106.938L151.709 106.749 151.331 106.976C151.861 107.051 152.428 107.013 153.071 106.862L153.411 108.261 131.744 142.71 126.941 148.722 124.597 156.587 125.051 156.474 127.395 155.491 126.639 158.554 126.866 159.461 127.508 160.255C127.206 160.331 127.093 160.52 127.168 160.86L127.282 161.352 128.265 161.125C129.702 159.877 130.307 158.743 130.08 157.722 131.63 157.986 132.651 158.1 133.181 157.949L133.294 158.44C132.349 158.667 131.857 159.423 131.781 160.709L131.895 161.201 132.424 161.087C140.29 152.503 159.575 123.122 175.041 103.194 174.549 101.039 182.603 98.051 199.241 94.194L199.771 94.081C200.376 96.69 199.09 103.005 195.914 113.026 193.872 119.076 192.889 122.404 193.04 122.933 190.393 130.987 189.145 135.336 189.296 136.017L183.397 155.339C179.578 165.247 176.667 175.646 174.625 186.612 174.965 186.536 175.494 186.574 176.251 186.763L177.082 186.044C177.158 186.385 177.385 186.498 177.725 186.422L177.385 185.023 179.956 184.948C180.712 184.759 181.355 183.813 181.885 182.074 181.771 179.465 182.301 178.066 183.473 177.763 185.061 171.562 186.044 168.461 186.385 168.347 187.859 162.184 188.956 158.667 189.674 157.797 191.906 149.781 193.531 145.659 194.59 145.394L194.817 146.378 193.191 150.575C190.355 163.167 187.481 173.112 184.57 180.41L185.402 184.04 185.931 183.927C192.964 168.801 203.098 138.853 216.295 94.081 216.674 90.148 218.564 87.085 221.93 84.93L221.173 84.136 221.06 83.72C222.573 83.38 223.631 82.775 224.236 81.943 224.161 81.602 222.837 81.111 220.266 80.43L226.846 52.221C228.282 50.935 229.114 50.255 229.379 50.255L229.493 51.692C229.152 51.729 228.623 51.918 228.018 52.334L229.266 54.112C231.534 51.654 233.992 49.536 236.677 47.759 238.038 48.137 238.719 48.591 238.795 49.045L239.778 48.969C247.265 43.486 254.601 39.553 261.823 37.171L261.899 38.116C260.576 40.12 259.668 41.141 259.176 41.179 259.252 41.86 259.441 42.465 259.781 42.994 259.895 44.242 256.643 52.561 249.988 67.989 234.786 103.723 222.043 130.155 211.682 147.323 211.72 147.663 211.947 148.117 212.363 148.722 214.896 148.117 216.522 147.474 217.165 146.869L217.619 146.831 217.695 147.777 218.753 147.701 219.699 147.209C219.736 147.474 220.077 147.588 220.72 147.55L220.795 148.571C220.871 149.478 220.342 150.915 219.169 152.881 218.073 154.054 216.938 156.512 215.728 160.255L215.766 160.747 216.749 160.671C220.871 156.058 224.009 151.52 226.165 147.058 238.227 143.504 247.416 140.063 253.769 136.659 260.235 136.092 265.113 134.428 268.441 131.63L268.403 131.139 265.945 131.857 265.416 131.895 265.378 131.403C270.067 130.723 273.357 129.664 275.134 128.265 284.285 121.231 291.205 116.202 295.894 113.253 310.49 102.627 317.296 92.417 316.464 82.623L316.464 82.623ZM313.969 83.266L314.309 87.085C313.855 88.031 313.364 88.522 312.91 88.56L312.343 82.056C313.401 82.434 313.931 82.812 313.969 83.266L313.969 83.266ZM27.642 52.486L26.999 52.523 26.886 51.351 29.495 51.124 29.533 51.729C29.117 51.767 28.474 51.994 27.642 52.486L27.642 52.486ZM14.899 179.956C13.386 179.276 12.025 179.011 10.853 179.124L10.701 177.271C10.626 176.553 11.042 176.061 11.949 175.872 12.781 175.797 13.273 176.402 13.348 177.612 15.542 174.927 16.752 173.566 16.979 173.528L18.378 174.095C17.924 177.877 16.752 179.805 14.899 179.956L14.899 179.956ZM151.067 37.511C150.424 37.587 149.138 35.583 147.285 31.612L147.172 30.44C148.382 30.327 149.63 32.293 150.953 36.339L151.067 37.511 151.067 37.511ZM149.251 23.407L148.722 24.655 130.231 16.941C142.558 17.357 148.911 19.512 149.251 23.407L149.251 23.407ZM71.166 90.451L68.557 90.678 68.443 89.505 71.052 89.279 71.166 90.451 71.166 90.451ZM69.048 50.179L69.691 50.141 69.842 51.994C69.237 52.032 68.443 52.939 67.46 54.679L67.346 53.393C68.519 51.994 69.124 50.935 69.048 50.179L69.048 50.179ZM63.565 63.111L63.792 65.569 63.149 65.607 62.922 63.149 63.565 63.111 63.565 63.111ZM60.691 67.725L61.939 67.611C61.826 69.653 61.259 70.75 60.238 70.825L59.595 70.863C60.389 69.502 60.767 68.443 60.691 67.725L60.691 67.725ZM58.536 74.153L59.254 74.077 59.292 74.682 58.12 76.649 56.872 76.762 56.834 76.157C58.082 76.044 58.649 75.401 58.536 74.153L58.536 74.153ZM56.418 79.939L56.04 83.039 55.397 83.077 55.133 80.014 56.418 79.939 56.418 79.939ZM35.205 140.252C34.373 144.487 33.465 146.642 32.52 146.718L32.482 146.113C32.255 144.033 33.163 142.067 35.205 140.252L35.205 140.252ZM31.31 148.684L31.348 149.289C31.423 150.121 31.045 150.613 30.213 150.65L30.176 150.045C30.1 149.327 30.478 148.873 31.31 148.684L31.31 148.684ZM30.176 166.192L32.142 166.003 32.217 166.684C31.726 166.721 31.083 166.986 30.289 167.44L29.041 167.553C28.965 166.911 29.381 166.419 30.175 166.192L30.176 166.192 30.176 166.192ZM86.14 148.911C75.098 154.356 68.594 158.062 66.666 159.99 54.717 164.15 48.78 166.721 48.893 167.742 38.268 171.94 31.272 175.041 27.907 176.969 27.113 177.045 25.978 176.742 24.466 176.061 24.277 173.906 25.26 172.167 27.339 170.768 29.192 170.616 30.969 170.881 32.671 171.599 34.638 170.578 38.079 169.444 42.957 168.234L42.843 166.948 38.911 167.289C39.402 166.608 43.183 164.831 50.292 161.957L52.259 161.768 52.297 162.373C48.931 162.675 47.078 163.659 46.662 165.436 46.738 166.23 47.192 166.57 48.024 166.495 50.557 164.906 51.805 163.961 51.767 163.696 56.57 162.789 69.842 155.831 91.585 142.861L91.699 144.033C91.737 144.6 89.884 146.188 86.14 148.911L86.14 148.911ZM52.788 159.877C55.965 159.612 58.687 158.327 60.956 156.096 61.863 156.02 62.355 156.36 62.393 157.154 60.842 157.306 57.855 158.591 53.507 161.087L52.864 161.125 52.788 159.877 52.788 159.877ZM106.597 118.546L89.921 131.744C77.518 139.874 70.863 143.957 69.918 144.033 50.179 154.886 37.89 160.52 33.125 160.936L32.407 161.011C33.012 158.781 41.784 140.819 58.801 107.013 66.288 106.37 78.086 102.892 94.157 96.539L98.089 96.198C106.219 95.48 112.307 97.068 116.316 100.85L116.542 103.307C113.517 112.005 110.19 117.072 106.597 118.546L106.597 118.546ZM74.002 100.207L76.687 99.98 76.724 100.585 74.04 100.812 74.002 100.207 74.002 100.207ZM111.702 93.816L113.669 93.627C115.484 94.497 116.429 95.253 116.505 95.934L116.542 96.539C114.803 96.69 113.177 95.783 111.702 93.816L111.702 93.816ZM117.034 63.452C115.295 65.531 110.53 69.086 102.74 74.077 100.169 74.304 90.602 78.01 74.04 85.27 73.208 84.892 72.338 84.741 71.393 84.817L71.279 83.644C71.09 81.262 72.149 78.275 74.493 74.645 75.779 67.838 77.178 63.943 78.729 62.998L92.531 31.953C92.379 30.024 95.329 28.549 101.379 27.528L103.345 27.339 103.497 29.117C109.433 28.209 113.139 27.68 114.576 27.566 125.542 26.621 131.252 28.852 131.706 34.184L132.954 34.07 132.689 30.932 134.05 30.818C137.264 32.596 139.004 34.751 139.231 37.284 139.382 39.024 138.437 41.179 136.432 43.751 135.601 43.826 135.109 43.221 135.033 42.011L133.672 42.125 133.37 45.906C127.811 54.225 123.765 58.498 121.269 58.725 119 61.864 117.601 63.414 117.034 63.452L117.034 63.452ZM125.504 85.195C124.37 84.438 123.462 84.098 122.782 84.136L122.63 82.283 123.878 82.17 126.639 83.796C126.752 84.665 126.374 85.119 125.504 85.195L125.504 85.195ZM134.277 95.593C135.487 96.085 136.206 96.614 136.357 97.106L135.752 97.257 135.79 97.295C135.676 97.295 135.525 97.333 135.411 97.371L134.504 98.089 134.277 95.593 134.277 95.593ZM135.109 100.812L134.996 100.32 136.584 99.942 136.697 100.434 135.109 100.812 135.109 100.812ZM138.928 105.085C140.554 104.82 141.348 104.707 144.373 104.026L144.487 104.518 138.739 105.841C138.815 105.576 138.89 105.312 138.928 105.085L138.928 105.085ZM144.525 107.467C142.105 107.694 142.634 107.391 138.777 108.261L138.663 107.77 143.466 106.219 145.773 105.69 145.999 106.597C144.978 106.824 145.735 106.824 144.525 107.467L144.525 107.467ZM149.63 106.257C149.062 106.408 148.609 106.144 148.344 105.501L149.819 105.16C150.461 105.009 150.877 105.274 151.029 105.917L149.63 106.257 149.63 106.257ZM163.469 91.358L163.356 90.867 165.738 90.3 165.965 91.207 163.469 91.358 163.469 91.358ZM178.255 182.036C178.406 181.355 178.444 180.864 178.368 180.523L178.898 180.41C179.54 180.259 179.918 180.486 180.07 181.091L180.183 181.582 178.255 182.036 178.255 182.036ZM188.616 95.253L187.557 95.064C185.855 95.745 184.418 96.236 183.246 96.501L182.263 96.728C181.696 96.879 181.242 96.652 181.015 96.047L187.935 94.459 190.204 93.4 190.96 94.27C189.863 94.497 189.069 94.837 188.616 95.253L188.616 95.253ZM193.947 93.551L193.834 93.06C194.174 92.984 194.628 92.72 195.12 92.228L200.035 91.094 200.149 91.585C197.54 92.228 195.46 92.871 193.947 93.551L193.947 93.551ZM194.704 83.606C194.363 83.682 193.91 83.985 193.342 84.438 193.267 84.098 192.586 84.098 191.3 84.401 191.074 83.455 194.704 82.132 202.229 80.392L203.287 80.165 203.514 81.073C198.22 82.623 195.271 83.493 194.704 83.606L194.704 83.606ZM207.939 69.313C207.409 75.325 205.292 78.729 201.548 79.598L201.435 79.107 198.107 80.392 196.632 80.733C195.876 80.922 195.195 80.884 194.59 80.695L194.288 79.371C194.174 78.88 198.977 72.224 208.733 59.443L209.867 59.633C210.283 61.372 209.64 64.586 207.939 69.313L207.939 69.313ZM231.345 49.271L230.892 49.309 230.816 48.364 232.782 48.175 232.82 48.666C232.48 48.742 231.988 48.931 231.345 49.271L231.345 49.271ZM221.703 146.113C220.568 145.583 219.547 145.357 218.678 145.432L218.564 143.995C218.526 143.504 218.829 143.163 219.472 142.974 220.115 142.899 220.493 143.352 220.568 144.336 222.194 142.256 223.102 141.197 223.291 141.197L224.312 141.613C223.934 144.487 223.064 145.999 221.703 146.113L221.703 146.113ZM325.086 37.965C324.594 38.003 323.649 36.49 322.174 33.427L322.099 32.482C323.044 32.406 324.027 33.881 325.01 36.906L325.086 37.965 325.086 37.965ZM323.725 27.15L323.271 28.133 309.28 22.272C318.62 22.575 323.46 24.201 323.725 27.15L323.725 27.15ZM264.395 78.086L262.428 78.275 262.353 77.329 264.319 77.178 264.395 78.086 264.395 78.086ZM262.769 47.494L263.298 47.456 263.411 48.893C262.92 48.931 262.315 49.612 261.596 50.935L261.521 49.99C262.391 48.893 262.806 48.061 262.769 47.494L262.769 47.494ZM258.647 57.326L258.798 59.179 258.269 59.217 258.117 57.364 258.647 57.326 258.647 57.326ZM256.416 60.843L257.399 60.767C257.286 62.355 256.87 63.187 256.151 63.263L255.622 63.3C256.189 62.242 256.454 61.41 256.416 60.843L256.416 60.843ZM254.828 65.683L255.282 65.645 255.319 66.136 254.45 67.649 253.466 67.725 253.429 67.233C254.45 67.157 254.903 66.628 254.828 65.683L254.828 65.683ZM253.24 70.069L252.899 72.489 252.445 72.527 252.256 70.145 253.24 70.069 253.24 70.069ZM237.093 115.937C236.45 119.114 235.77 120.74 235.051 120.815L235.013 120.399C234.9 118.811 235.58 117.299 237.093 115.937L237.093 115.937ZM234.106 122.328L234.143 122.744C234.219 123.424 233.917 123.803 233.236 123.84L233.198 123.349C233.16 122.857 233.463 122.517 234.106 122.328L234.106 122.328ZM233.274 135.638L234.786 135.525 234.824 136.016C234.484 136.054 233.954 136.243 233.349 136.584L232.366 136.659C232.328 136.13 232.631 135.79 233.274 135.638L233.274 135.638ZM275.739 122.517C267.42 126.639 262.466 129.437 260.916 130.874 251.84 134.05 247.341 136.017 247.416 136.811 239.362 140.025 234.068 142.331 231.572 143.806 230.967 143.844 230.097 143.617 228.963 143.088 228.812 141.462 229.568 140.138 231.156 139.155 232.593 139.042 233.954 139.231 235.202 139.76 236.715 139.004 239.324 138.172 243.03 137.227L242.954 136.281 239.853 136.508C240.232 135.979 243.143 134.617 248.551 132.424L250.063 132.311 250.101 132.727C247.53 132.954 246.093 133.71 245.79 135.071 245.828 135.676 246.206 135.979 246.849 135.903 248.74 134.655 249.647 133.937 249.647 133.71 253.277 133.067 263.336 127.773 279.861 117.866L279.936 118.811C279.974 119.227 278.575 120.437 275.739 122.517L275.739 122.517ZM250.404 130.836C252.861 130.609 254.941 129.664 256.681 128 257.323 127.924 257.702 128.227 257.739 128.832 256.605 128.945 254.374 129.891 251.008 131.706L250.479 131.744 250.404 130.836 250.404 130.836ZM291.318 99.413L278.726 109.547C269.31 115.71 264.206 118.811 263.411 118.887 248.437 127.13 239.135 131.403 235.467 131.706L234.938 131.744C235.391 130.042 242.085 116.391 255.017 90.753 260.651 90.262 269.575 87.577 281.827 82.737L284.89 82.472C291.053 81.943 295.667 83.153 298.692 86.064L298.843 87.917C296.536 94.421 294.041 98.24 291.318 99.413L291.318 99.413ZM266.588 85.497L268.554 85.308 268.592 85.8 266.626 85.989 266.588 85.497 266.588 85.497ZM295.213 80.619L296.726 80.506C298.125 81.186 298.843 81.792 298.881 82.283L298.919 82.699C297.595 82.812 296.347 82.132 295.213 80.619L295.213 80.619ZM299.183 57.591C297.86 59.179 294.268 61.901 288.407 65.683 286.44 65.872 279.18 68.67 266.626 74.115 266.021 73.888 265.34 73.813 264.621 73.851L264.546 72.905C264.395 71.09 265.189 68.821 266.928 66.061 267.911 60.843 269.008 57.931 270.142 57.25L280.692 33.654C280.579 32.255 282.81 31.121 287.348 30.251L288.86 30.138 288.974 31.575C293.436 30.856 296.234 30.44 297.368 30.327 305.687 29.608 310.036 31.272 310.376 35.356L311.359 35.28 311.17 33.011 312.154 32.936C314.574 34.259 315.859 35.848 316.011 37.738 316.124 39.1 315.443 40.763 314.006 42.692 313.364 42.767 312.986 42.314 312.91 41.331L311.927 41.406 311.624 44.242C307.427 50.633 304.364 53.923 302.435 54.074 300.734 56.381 299.675 57.553 299.183 57.591L299.183 57.591ZM303.608 73.321L303.494 71.884 304.477 71.809 306.595 73.094C306.633 73.699 306.33 74.04 305.687 74.115 304.78 73.548 304.099 73.283 303.608 73.321L303.608 73.321ZM127.584 165.171L126.601 165.398 125.769 166.116C125.92 166.721 126.298 166.948 126.941 166.797 127.584 166.646 127.849 166.268 127.698 165.663L127.584 165.171 127.584 165.171ZM123.841 157.722L123.954 158.213C124.597 158.062 124.861 157.684 124.71 157.079L124.597 156.587C123.992 156.739 123.727 157.117 123.841 157.722L123.841 157.722ZM150.461 94.383L151.596 94.119 151.369 93.136 150.235 93.4 150.461 94.383 150.461 94.383ZM493.585 123.198C482.089 125.769 480.652 125.315 478.232 125.504L478.308 126.45 479.367 126.374 479.934 126.336 479.783 126.223 481.03 125.731C492.412 124.483 493.736 124.937 493.622 123.651L493.585 123.198 493.585 123.198ZM431.683 131.403L431.759 132.349 431.91 132.349 431.835 131.403 431.683 131.403 431.683 131.403ZM424.574 106.484L423.553 106.144C422.721 108.375 422.305 109.698 422.343 110.076L422.381 110.492C423.175 110.454 423.894 109.093 424.574 106.484L424.574 106.484ZM495.929 123.009L496.005 123.954 497.668 124.256 497.593 123.311 495.929 123.009 495.929 123.009ZM417.692 132.575L415.121 132.273 414.667 133.256 414.705 133.748 430.019 132.462 429.944 131.517 417.692 132.575 417.692 132.575ZM410.734 99.035L410.697 98.543 410.167 98.581 409.222 99.186 409.751 100.093C410.47 100.018 410.81 99.677 410.734 99.035L410.734 99.035ZM503.189 116.051L503.908 115.975C504.324 115.937 504.513 115.597 504.475 114.992L504.059 114.084C501.45 114.311 500.24 114.425 498.122 115.597L498.084 115.106 494.946 115.408C494.87 114.463 494.606 113.971 494.19 114.009L492.564 114.16C490.673 114.311 489.765 114.236 488.82 114.954 488.782 114.614 488.669 114.463 488.48 114.463L486.665 114.614 485.606 115.219C485.568 114.879 485.455 114.727 485.265 114.727L484.623 115.295 484.585 114.803 482.051 114.614 481.446 114.652 481.522 115.597 482.808 115.937 484.018 115.862C484.434 116.127 484.887 116.202 485.417 116.164L486.476 115.635 486.513 116.051C480.577 117.526 480.614 117.261 476.53 117.942 476.077 117.639 475.736 117.488 475.509 117.526L475.434 117.601C474.98 117.563 474.715 117.261 474.678 116.769L476.795 116.505C476.946 116.505 477.06 116.656 478.232 116.883 479.934 116.051 480.009 115.71 480.917 115.635L480.841 114.689C475.018 115.824 477.362 115.068 470.064 115.71L469.724 115.748 469.648 114.803C479.026 113.669 475.888 114.311 479.102 113.404 479.14 113.744 479.253 113.895 479.442 113.895 479.82 113.517 480.236 113.328 480.728 113.253L481.371 113.215C484.66 112.95 485.757 113.593 492.261 111.778L492.299 112.194 493.358 111.664 494.341 111.589C494.265 110.643 495.702 110.492 496.194 110.454L496.118 109.433C484.698 111.74 481.711 111.097 478.535 112.005L478.497 111.589C475.51 112.118 475.396 111.891 474.64 111.929 474.413 111.967 474.073 112.156 473.694 112.534 473.657 112.194 473.543 112.042 473.316 112.042 473.203 112.042 473.165 112.08 473.127 112.08L463.447 113.668C463.409 113.404 463.296 113.253 463.069 113.29 458.04 114.349 459.401 114.538 452.67 115.143 452.367 115.181 451.952 115.332 451.422 115.673 451.384 115.408 451.233 115.257 450.893 115.294L446.771 115.635 444.011 116.315C443.973 116.051 443.822 115.9 443.481 115.937 441.931 116.353 440.57 116.618 439.473 116.694L439.397 116.694C438.717 116.769 439.738 116.505 439.208 116.278L438.376 116.769C437.166 116.883 437.809 116.694 433.65 116.731 426.352 117.639 427.146 117.752 426.352 117.79L423.629 117.601C423.667 117.866 423.516 118.055 423.213 118.055 420.112 117.639 418.524 117.147 418.486 116.58 418.902 113.631 419.621 112.118 420.642 112.042L421.171 112.005 420.717 112.988 421.247 112.95C422.23 112.421 422.684 111.929 422.646 111.475L422.57 110.454 421.587 110.53 421.511 109.585C421.436 108.866 421.549 108.223 421.814 107.694L424.045 104.102 424.121 105.047 425.179 104.971 425.104 104.026 424.499 103.156C425.293 102.476 425.898 102.097 426.389 102.06L426.352 101.568 424.915 101.682 424.801 100.245C427.675 94.27 429.036 90.791 428.961 89.808L429.982 90.224C430.625 90.186 430.927 89.808 430.889 89.127L429.906 89.203 429.868 88.787C429.793 88.068 429.944 87.388 430.246 86.783 431.797 85.157 432.515 83.531 432.364 81.829 432.667 81.791 432.818 81.943 432.856 82.283 434.179 81.527 435.2 79.523 435.956 76.195 438.301 71.96 441.628 63.49 445.977 50.822 454.296 28.436 453.956 26.054 455.128 20.76L454.145 20.835C454.22 21.516 454.069 22.159 453.767 22.764 453.086 22.499 452.557 22.348 452.179 22.386L452.141 21.97C451.989 20.041 452.784 17.735 454.599 15.012L455.052 14.974 455.884 18.226 456.867 18.151C456.83 17.924 457.094 16.638 457.624 14.256 457.586 13.764 457.208 13.462 456.451 13.424L455.506 14.029C455.431 13.348 455.468 11.571 455.582 8.735L455.09 8.773C454.258 7.941 453.842 7.26 453.804 6.693L448.397 7.222C448.359 6.844 448.17 6.277 447.792 5.559 447.754 5.067 448.964 4.575 451.46 4.084L452.557 4.5 453.578 3.895C453.615 4.235 453.804 4.386 454.182 4.349L455.203 3.744C455.241 4.084 455.43 4.235 455.809 4.197L456.3 4.16 456.224 3.063C455.468 3.139 453.464 3.139 450.288 3.025L449.267 3.706 449.229 3.101C423.856 5.18 409.449 6.353 406.008 6.693 405.554 6.731 403.777 6.693 400.638 6.617 400.676 7.033 400.298 7.26 399.542 7.336L398.445 6.844 394.739 7.79C393.869 7.865 392.395 7.827 390.353 7.601 389.786 8.054 389.105 8.319 388.273 8.395 387.819 8.432 393.68 8.092 399.125 7.714 398.558 8.168 397.689 8.432 396.479 8.546 395.647 8.622 394.928 8.508 394.323 8.168 393.491 8.546 390.807 9.151 386.307 10.058L385.21 9.643 367.513 12.365C366.832 12.025 366.038 11.911 365.131 11.987 364.185 12.063 362.597 12.403 360.404 13.008L351.858 16.562 352.501 17.621C352.917 17.583 353.522 17.357 354.24 16.941L357.266 17.205 356.887 20.041C354.089 21.289 352.463 23.142 352.009 25.487 347.812 27.339 345.732 28.663 345.732 29.457L345.77 29.949 346.413 29.911 347.547 29.306 348.871 30.894 349.06 33.087C349.135 33.768 342.064 48.629 327.922 77.67 315.67 105.652 309.242 120.967 308.637 123.727 304.44 124.899 302.019 126.601 301.301 128.87 301.377 129.588 302.624 130.08 305.044 130.269L305.158 131.365 304.061 133.18 304.25 135.374C304.364 136.508 307.427 137.378 313.439 137.983 313.401 137.605 313.591 137.378 314.006 137.34 314.12 138.701 313.742 141.348 312.872 145.281L313.515 145.243C316.01 141.84 317.183 139.495 317.069 138.21L317.599 138.172C318.204 138.134 318.847 138.815 319.603 140.289 318.847 140.592 316.2 146.604 311.662 158.365L312.305 159.423 312.948 159.386C318.506 145.319 321.985 137.529 323.422 136.054 330.72 135.411 343.35 134.126 361.274 132.197L362.408 131.517C362.446 131.895 362.673 132.084 363.089 132.046L364.261 131.933 365.396 131.252C365.433 131.63 365.66 131.819 366.076 131.781L379.651 130.609C383.244 130.307 384.945 129.21 384.794 127.357 384.756 126.866 386.874 126.298 391.147 125.693 391.563 125.655 392.168 125.769 393 126.034 392.962 125.693 395.117 125.353 399.428 124.975 399.542 122.706 400.26 121.496 401.546 121.383L401.432 120.286C400.222 120.399 398.861 120.702 397.273 121.231 394.437 121.08 392.622 120.853 391.865 120.588 391.109 121.004 390.542 121.231 390.126 121.269L380.672 121.572 379.538 122.177C379.5 121.836 379.273 121.685 378.857 121.723L378.328 121.761 377.118 122.366C377.08 122.025 376.097 121.761 374.13 121.496L372.921 122.214 370.576 122.403 370.538 121.798C382.714 120.475 388.727 118.811 388.575 116.845 389.37 116.769 389.786 117.147 389.861 117.942L393.416 117.034 393.302 115.937 364.148 116.731C364.185 117.11 363.996 117.336 363.581 117.374L360.026 117.072C359.118 117.147 358.362 117.412 357.757 117.866L356.434 117.374C352.766 117.677 350.043 118.131 348.228 118.698 345.732 118.509 342.972 118.546 339.909 118.811L333.367 119.378 330.342 119.038C330.191 117.11 333.934 107.618 341.648 90.602 343.88 84.854 345.921 81.262 347.888 79.901 348.304 79.863 348.909 80.014 349.741 80.354L354.392 78.766 356.774 79.144C360.782 78.804 365.433 77.67 370.765 75.703 372.089 75.59 373.072 75.666 373.79 75.968L377.345 75.136 387.933 74.229C392.432 73.851 397.31 72.867 402.604 71.241L402.491 70.145C400.525 70.334 399.504 69.994 399.428 69.199 399.315 67.725 397.878 67.12 395.117 67.346L395.004 66.25 397.916 65.418 405.554 64.775 405.44 63.679C405.138 63.716 403.588 63.679 400.714 63.565L400.6 62.393 403.55 62.128C404.344 62.053 404.684 61.674 404.609 60.918 400.638 61.032 398.634 60.843 398.596 60.313 370.916 61.674 357.039 61.939 356.963 61.069 356.547 61.107 355.98 61.372 355.224 61.826L354.505 60.691C361.841 45.112 366.152 37.247 367.4 37.133 367.437 37.738 367.135 38.721 366.454 40.045L366.492 40.536 367.664 40.423C370.576 33.465 373.034 29.873 375.076 29.722 383.773 28.965 373.866 28.398 392.47 25.487 393.227 25.827 393.756 25.978 394.134 25.94 401.432 24.466 411.604 22.915 424.65 21.327L424.574 20.23 417.616 20.873 417.541 19.777C418.373 19.701 419.053 19.436 419.621 18.983L419.658 19.588C420.037 19.55 420.566 19.285 421.247 18.831 422.457 18.718 423.364 18.831 424.007 19.172 426.427 18.529 428.393 18.151 429.83 17.999L434.179 17.583C435.238 16.903 435.729 16.298 435.692 15.731L435.654 15.239C434.557 15.352 433.309 15.277 431.835 15.012 431.797 14.407 432.099 13.991 432.818 13.802L440.91 13.046 444.616 12.1C444.653 12.516 444.843 12.668 445.145 12.668 445.523 12.63 446.053 12.365 446.733 11.911 446.922 11.949 447.149 11.949 447.338 11.987 446.847 13.008 446.279 14.483 445.712 16.411L444.653 16.487C444.578 15.768 444.389 15.126 444.048 14.558L443.519 14.596C433.687 41.973 429.301 54.717 420.226 75.741 418.562 81.111 417.163 84.098 415.953 84.741 415.991 85.346 416.369 85.648 417.012 85.573 417.238 88.22 416.633 90.829 415.159 93.4 410.961 105.501 408.163 112.118 406.726 113.328L407.671 119.038C407.709 119.643 407.407 119.983 406.764 120.059L405.781 120.135C405.629 118.546 405.062 117.79 404.041 117.904L403.512 117.942C402.226 119.946 401.243 122.252 400.6 124.937L401.583 124.861C402.907 123.992 403.512 122.971 403.398 121.798L405.365 121.609 406.499 122.025C405.592 123.462 405.176 124.597 405.251 125.466L405.781 126.374 404.495 129.399 404.533 129.891C405.667 129.777 406.915 130.155 408.239 130.949 409.146 130.874 410.129 130.458 411.226 129.739 412.36 129.626 416.595 129.588 423.894 129.588L427.561 128.34C432.024 128.302 432.742 128.416 436.599 128.076L438.187 127.924 439.019 127.357 439.057 127.849C443.103 127.508 443.368 127.773 446.544 128.151L446.582 128.643 444.351 128.832 444.426 129.777C445.107 129.702 445.712 129.512 446.204 129.097 446.771 129.059 447.111 129.361 447.149 130.042 446.242 130.118 445.221 130.344 444.086 130.723L443.103 130.382C441.553 130.798 441.893 130.912 440.834 130.987L439.284 130.685C439.322 130.949 439.17 131.138 438.906 131.138 438.943 131.744 439.284 132.046 439.851 132.008L441.439 131.857 449.72 131.138 452.859 130.458C452.897 130.723 453.01 130.874 453.275 130.836L454.787 130.269 457.624 130.042C459.817 129.853 459.779 129.702 464.543 128.945 464.506 128.643 464.619 128.529 464.846 128.492L464.884 128.907C472.636 127.584 473.127 127.508 474.375 127.092L474.488 127.319C476.417 126.866 475.32 126.979 475.85 126.601 475.888 126.941 476.001 127.092 476.19 127.092L477.551 126.979 477.476 125.958 474.715 125.92 474.678 125.845C474.564 125.882 474.488 125.882 474.375 125.92L473.997 125.92 473.997 125.996C472.144 126.374 472.106 126.109 470.896 126.223L463.976 126.601 463.938 126.109 467.795 125.58 469.194 125.466 469.989 124.899 470.026 125.391C475.472 124.937 477.4 126.298 502.584 120.929 503.945 120.815 503.832 119.681 504.702 117.336 504.248 117.374 503.794 117.261 503.378 117.034 501.299 117.828 500.202 117.45 496.194 118.093 495.853 118.131 495.589 117.828 495.475 117.223L495.437 116.807 499.294 116.92C500.013 116.845 501.412 116.731 503.492 115.559 503.492 115.9 502.735 116.089 503.189 116.051L503.189 116.051ZM316.994 119.038L315.216 119.189C315.141 118.471 316.086 115.748 318.052 111.097L319.225 110.984C319.263 112.08 318.544 114.765 316.994 119.038L316.994 119.038ZM319.149 110.417L319.111 109.925C319.073 109.32 319.452 108.904 320.284 108.715L320.321 109.206C320.359 109.925 319.981 110.341 319.149 110.417L319.149 110.417ZM342.783 128.681L342.821 129.172 339.871 129.437 339.833 128.945 342.783 128.681 342.783 128.681ZM339.228 128.378C339.266 128.983 338.359 129.664 336.392 130.344L332.762 130.08 331.59 130.193 331.477 129.097 339.228 128.378 339.228 128.378ZM363.127 18.378L361.349 18.529 361.312 17.924C361.274 17.319 361.614 16.903 362.37 16.714L363.013 16.676 364.223 17.167C364.261 17.886 363.921 18.302 363.127 18.378L363.127 18.378ZM390.164 13.084L390.731 13.046 390.806 14.142 389.18 14.294C389.143 13.689 389.445 13.273 390.164 13.084L390.164 13.084ZM383.357 15.466L380.672 15.163 380.634 14.672C384.151 14.369 385.323 13.991 387.479 13.386 387.517 13.802 387.895 13.953 388.575 13.878L388.651 14.974 387.592 15.088C386.76 15.163 386.042 15.05 385.437 14.71 384.794 15.126 384.113 15.39 383.357 15.466L383.357 15.466ZM386.723 25.26L386.685 24.768 391.033 24.352 391.071 24.844 386.723 25.26 386.723 25.26ZM391.374 21.478L391.336 20.873 393.453 20.684 393.491 21.289 391.374 21.478 391.374 21.478ZM391.865 14.067L391.298 14.105 391.79 12.932 396.63 12.479 396.668 13.084C395.42 13.197 393.794 13.537 391.865 14.067L391.865 14.067ZM394.323 24.503L394.247 23.407 396.365 23.218C397.084 23.142 397.462 23.482 397.5 24.239L394.323 24.503 394.323 24.503ZM407.142 7.033L404.419 7.79 403.928 7.827C402.642 7.941 400.978 7.903 399.012 7.714 402.529 7.487 405.894 7.222 407.142 7.033L407.142 7.033ZM404.23 19.134L404.268 19.625 400.525 19.966 400.487 19.474 404.23 19.134 404.23 19.134ZM410.356 22.045C410.318 21.592 409.6 21.289 408.125 21.138L404.382 22.197 401.508 22.31C400.865 21.856 400.525 21.554 400.487 21.327L403.815 21.516 411.302 20.306 415.121 20.457 415.159 21.062C413.268 21.251 411.68 21.592 410.356 22.045L410.356 22.045ZM448.889 12.1C449.342 12.138 449.645 12.138 449.758 12.138 451.082 10.853 452.557 9.832 454.258 9.113 452.897 15.088 450.779 19.512 447.868 22.386L445.75 21.1C447.527 16.6 448.586 13.613 448.889 12.1L448.889 12.1ZM442.385 23.256L442.914 23.218C442.195 24.579 441.553 25.297 441.023 25.335L440.91 23.898C441.25 23.898 441.742 23.671 442.385 23.256L442.385 23.256ZM438.187 33.276C439.208 29.192 440.191 26.886 441.099 26.281L441.137 26.772C440.607 30.554 439.775 32.558 438.679 32.709L438.868 35.091C437.96 36.377 437.544 37.36 437.582 38.116L437.053 38.154 436.75 34.864C437.355 34.789 437.847 34.259 438.187 33.276L438.187 33.276ZM436.561 38.721C436.599 39.289 436.221 40.612 435.465 42.654L434.935 42.692 434.822 41.255C435.54 39.591 436.145 38.759 436.561 38.721L436.561 38.721ZM406.046 127.281L406.008 126.866 406.991 126.79 407.104 128.227C406.575 128.265 406.197 127.962 406.046 127.281L406.046 127.281ZM449.645 128.416C449.607 128.076 449.456 127.924 449.116 127.962L446.658 128.189 446.62 127.697 446.847 127.697 452.67 127.206 452.708 127.697C451.006 127.773 449.985 128.038 449.645 128.416L449.645 128.416ZM446.733 127.206C446.96 127.319 446.847 127.433 446.733 127.508 446.62 127.471 446.469 127.357 446.733 127.206L446.733 127.206ZM447.036 120.399L443.784 120.664 443.746 120.172 446.695 119.908 449.267 119.265C449.305 119.567 449.456 119.681 449.796 119.643 452.859 119.114 452.557 118.963 454.031 118.849 454.523 118.811 454.826 119.114 454.863 119.719L447.036 120.399 447.036 120.399ZM458.418 119.416C456.603 119.227 456.489 119.076 455.204 119.189L455.166 118.773 458.077 118.509 458.115 118.925C457.813 118.963 458.909 119.038 458.418 119.416L458.418 119.416ZM458.645 118.887L458.607 118.471 460.195 118.32 460.233 118.736 458.645 118.887 458.645 118.887ZM462.161 118.584L462.124 118.168C462.388 118.131 462.766 117.942 463.258 117.563 464.052 117.488 464.468 118.017 464.544 118.622L462.161 118.584 462.161 118.584ZM466.661 118.017L466.623 117.526 468.552 117.374 468.59 117.866 466.661 118.017 466.661 118.017ZM469.346 117.79C469.308 117.223 469.535 116.883 470.027 116.807L470.669 117.639C470.632 117.374 470.745 117.223 470.972 117.185L471.464 118.093 469.346 117.79 469.346 117.79ZM440.797 130.118L440.721 129.172 440.418 129.21 440.494 130.155 440.797 130.118 440.797 130.118ZM507.236 112.912C507.538 112.723 507.689 112.534 506.971 112.421 506.63 112.799 507.349 112.912 506.593 112.95L506.63 113.29C506.706 113.215 506.895 113.101 507.046 112.988L506.63 113.328 506.63 113.366 505.836 114.387 507.424 113.82 507.614 113.82 507.538 112.874 507.236 112.912 507.236 112.912ZM509.996 115.068L509.693 115.106 509.769 116.051 512 115.862C511.962 115.257 510.487 115.068 509.996 115.068L509.996 115.068ZM506.555 113.404L506.593 113.366 506.593 113.328C506.593 113.328 506.555 113.366 506.555 113.404L506.555 113.404Z" fill="#000000"/><path d="M361.387 43.41L361.425 44.015 362.673 43.902C362.635 43.524 362.786 42.919 363.051 42.162L362.938 41.066C362.408 41.104 361.879 41.898 361.387 43.41L361.387 43.41ZM349.438 14.672L349.325 13.575 347.547 13.726 347.661 14.823 349.438 14.672 349.438 14.672ZM314.763 79.598C314.687 78.577 311.511 74.607 305.234 67.611 305.12 66.326 307.276 64.397 311.7 61.864L324.33 50.86C327.166 47.267 328.829 41.444 329.321 33.352L329.17 31.499C328.678 25.902 324.632 21.403 316.956 17.962 312.418 14.899 304.25 13.197 292.453 12.894 282.697 13.726 269.953 17.205 254.261 23.369 249.95 26.47 245.034 29.57 239.513 32.671L239.589 33.617C239.929 33.579 240.458 33.39 241.064 32.974 241.706 32.898 242.085 33.201 242.122 33.806L243.068 33.314 243.521 33.276 243.559 33.692C243.597 34.184 240.194 36.868 233.312 41.671L233.841 42.654 233.387 42.692 232.253 42.276C232.291 42.616 231.799 42.843 230.854 42.919L230.892 43.335 231.988 44.696C231.648 44.734 231.119 44.583 230.4 44.318 228.812 44.469 227.261 45.301 225.711 46.889L226.354 44.091C228.661 34.146 230.249 25.335 231.081 17.697L230.967 17.205C229.379 16.184 227.829 14.747 226.392 12.932 226.43 11.76 226.43 11.079 226.392 10.928L226.278 10.512 225.825 10.626C220.833 18.113 211.228 30.894 196.973 48.969 186.12 61.826 180.523 68.972 180.183 70.409 175.759 74.985 173.641 77.745 173.868 78.691 172.696 79.447 172.204 80.203 172.394 81.035 172.053 81.111 171.826 80.997 171.751 80.657 169.86 83.72 167.062 85.686 163.318 86.556L159.385 87.463C158.856 87.577 158.591 87.955 158.629 88.598L158.743 89.089 160.217 88.749 160.331 89.165 157.003 90.451 151.104 91.812 148.004 92.001C147.55 92.455 150.461 91.963 149.327 92.228L145.47 93.136C143.126 93.665 141.84 93.476 141.613 92.531L141.159 92.644C141.235 93.06 141.273 93.362 141.197 93.627L140.97 92.682 137.869 93.4C137.643 91.963 133.445 86.745 125.315 77.745 125.164 76.006 128.038 73.472 133.899 70.183L150.461 55.624C154.167 50.86 156.36 43.221 157.079 32.709L156.852 30.251C156.209 22.84 150.84 16.865 140.743 12.252 134.769 8.206 124.03 6.05 108.526 5.71 95.669 6.806 78.88 11.382 58.233 19.361 52.561 23.482 46.095 27.566 38.835 31.612L38.948 32.898C39.44 32.86 40.083 32.596 40.877 32.142 41.709 32.066 42.163 32.444 42.238 33.201L43.524 32.482 44.167 32.444 44.204 33.049C44.242 33.654 39.742 37.171 30.629 43.599L31.348 44.734 30.705 44.772 29.306 44.28C29.344 44.658 28.701 44.923 27.377 45.036L27.453 45.717 28.965 47.381C28.474 47.419 27.793 47.267 26.924 46.965 23.974 47.229 21.1 49.347 18.264 53.355L18.983 54.49C21.441 52.221 22.877 51.087 23.293 51.049L23.445 52.902C23.029 52.939 22.386 53.204 21.516 53.658L23.067 56.002C26.054 52.788 29.344 50.028 32.936 47.721 34.713 48.175 35.659 48.742 35.696 49.347L37.058 49.234C46.814 42.011 56.456 36.793 66.023 33.579L66.137 34.864C64.359 37.511 63.149 38.873 62.506 38.948 62.582 39.856 62.885 40.65 63.452 41.331 63.603 42.957 59.254 53.923 50.444 74.191 30.44 121.307 13.651 156.171 0 178.708 0.038 179.162 0.303 179.767 0.794 180.523 4.16 179.729 6.277 178.898 7.185 178.103L7.903 178.028 8.017 179.313 9.264 179.2 10.55 178.482C10.588 178.86 11.004 179.049 11.874 178.973L11.987 180.259C12.1 181.507 11.382 183.397 9.869 186.006 8.508 187.557 7.033 190.809 5.483 195.763L5.521 196.367 6.769 196.254C12.214 190.166 16.336 184.191 19.172 178.368 35.054 173.717 47.154 169.141 55.549 164.642 63.981 163.923 70.409 161.692 74.796 158.024L74.72 157.344 71.544 158.289 70.825 158.365 70.75 157.684C76.951 156.739 81.224 155.377 83.607 153.487 95.669 144.184 104.782 137.605 110.946 133.71 123.614 124.408 131.857 115.332 135.601 106.522 136.281 106.37 136.962 106.219 137.718 106.03 139.495 105.955 140.479 105.917 140.743 105.841 140.668 105.501 140.819 105.312 141.159 105.236 143.995 104.934 142.634 105.425 144.449 105.009L149.214 103.913 150.008 103.723 149.63 103.95C150.159 104.026 150.726 103.988 151.369 103.837L151.709 105.236 130.042 139.684 125.24 145.697 122.895 153.562 123.349 153.449 125.693 152.466 124.937 155.529 125.164 156.436 125.807 157.23C125.504 157.306 125.391 157.495 125.466 157.835L125.58 158.327 126.563 158.1C128 156.852 128.605 155.718 128.378 154.697 129.928 154.961 130.949 155.075 131.479 154.924L131.592 155.415C130.647 155.642 130.155 156.398 130.08 157.684L130.193 158.175 130.723 158.062C138.588 149.478 157.873 120.097 173.339 100.169 172.847 98.014 180.902 95.026 197.54 91.169L198.069 91.056C198.674 93.665 197.389 99.98 194.212 110.001 192.17 116.051 191.187 119.378 191.338 119.908 188.691 127.962 187.443 132.311 187.595 132.991L181.696 152.314C177.876 162.222 174.965 172.62 172.923 183.586 173.263 183.511 173.793 183.549 174.549 183.738L175.381 183.019C175.456 183.36 175.683 183.473 176.024 183.397L175.683 181.998 178.255 181.923C179.011 181.734 179.654 180.788 180.183 179.049 180.07 176.44 180.599 175.041 181.771 174.738 183.359 168.537 184.343 165.436 184.683 165.322 186.158 159.159 187.254 155.642 187.973 154.772 190.204 146.756 191.83 142.634 192.889 142.369L193.116 143.352 191.49 147.55C188.653 160.142 185.78 170.087 182.868 177.385L183.7 181.015 184.229 180.902C191.263 165.776 201.397 135.827 214.594 91.056 214.972 87.123 216.863 84.06 220.228 81.905L219.472 81.111 219.358 80.695C220.871 80.354 221.93 79.75 222.535 78.918 222.459 78.577 221.136 78.086 218.564 77.405L225.144 49.196C226.581 47.91 227.413 47.23 227.677 47.23L227.791 48.666C227.451 48.704 226.921 48.893 226.316 49.309L227.564 51.087C229.833 48.629 232.291 46.511 234.975 44.734 236.337 45.112 237.017 45.566 237.093 46.019L238.076 45.944C245.563 40.461 252.899 36.528 260.122 34.146L260.197 35.091C258.874 37.095 257.966 38.116 257.475 38.154 257.55 38.835 257.739 39.44 258.08 39.969 258.193 41.217 254.941 49.536 248.286 64.964 233.085 100.698 220.341 127.13 209.98 144.298 210.018 144.638 210.245 145.092 210.661 145.697 213.195 145.092 214.821 144.449 215.464 143.844L215.917 143.806 215.993 144.751 217.052 144.676 217.997 144.184C218.035 144.449 218.375 144.562 219.018 144.525L219.094 145.546C219.169 146.453 218.64 147.89 217.468 149.856 216.371 151.029 215.237 153.487 214.027 157.23L214.064 157.722 215.048 157.646C219.169 153.033 222.308 148.495 224.463 144.033 236.526 140.479 245.715 137.037 252.067 133.634 258.534 133.067 263.411 131.403 266.739 128.605L266.701 128.113 264.243 128.832 263.714 128.87 263.676 128.378C268.365 127.697 271.655 126.639 273.432 125.24 282.583 118.206 289.503 113.177 294.192 110.227 308.788 99.602 315.595 89.392 314.763 79.598L314.763 79.598ZM312.267 80.241L312.607 84.06C312.154 85.006 311.662 85.497 311.208 85.535L310.641 79.031C311.7 79.409 312.229 79.787 312.267 80.241L312.267 80.241ZM25.94 49.461L25.298 49.498 25.184 48.326 27.793 48.099 27.831 48.704C27.415 48.742 26.772 48.969 25.94 49.461L25.94 49.461ZM13.197 176.931C11.685 176.25 10.323 175.986 9.151 176.099L9 174.246C8.924 173.528 9.34 173.036 10.248 172.847 11.079 172.772 11.571 173.377 11.647 174.587 13.84 171.902 15.05 170.541 15.277 170.503L16.676 171.07C16.222 174.851 15.05 176.78 13.197 176.931L13.197 176.931ZM149.365 34.486C148.722 34.562 147.436 32.558 145.584 28.587L145.47 27.415C146.68 27.302 147.928 29.268 149.251 33.314L149.365 34.486 149.365 34.486ZM147.55 20.382L147.02 21.63 128.529 13.915C140.857 14.331 147.21 16.487 147.55 20.382L147.55 20.382ZM69.464 87.426L66.855 87.653 66.742 86.48 69.351 86.253 69.464 87.426 69.464 87.426ZM67.346 47.154L67.989 47.116 68.141 48.969C67.536 49.007 66.742 49.914 65.758 51.654L65.645 50.368C66.817 48.969 67.422 47.91 67.346 47.154L67.346 47.154ZM61.863 60.086L62.09 62.544 61.448 62.582 61.221 60.124 61.863 60.086 61.863 60.086ZM58.99 64.7L60.238 64.586C60.124 66.628 59.557 67.725 58.536 67.8L57.893 67.838C58.687 66.477 59.065 65.418 58.99 64.7L58.99 64.7ZM56.834 71.128L57.553 71.052 57.59 71.657 56.418 73.624 55.17 73.737 55.133 73.132C56.381 73.019 56.948 72.376 56.834 71.128L56.834 71.128ZM54.717 76.914L54.339 80.014 53.696 80.052 53.431 76.989 54.717 76.914 54.717 76.914ZM33.503 137.227C32.671 141.462 31.764 143.617 30.818 143.693L30.781 143.088C30.554 141.008 31.461 139.042 33.503 137.227L33.503 137.227ZM29.608 145.659L29.646 146.264C29.722 147.096 29.344 147.588 28.512 147.625L28.474 147.02C28.398 146.302 28.776 145.848 29.608 145.659L29.608 145.659ZM28.474 163.167L30.44 162.978 30.516 163.659C30.024 163.696 29.381 163.961 28.587 164.415L27.339 164.528C27.264 163.885 27.68 163.394 28.474 163.167L28.474 163.167ZM84.438 145.886C73.397 151.331 66.893 155.037 64.964 156.965 53.015 161.125 47.078 163.696 47.192 164.717 36.566 168.915 29.57 172.015 26.205 173.944 25.411 174.019 24.277 173.717 22.764 173.036 22.575 170.881 23.558 169.141 25.638 167.742 27.491 167.591 29.268 167.856 30.97 168.574 32.936 167.553 36.377 166.419 41.255 165.209L41.142 163.923 37.209 164.263C37.7 163.583 41.482 161.806 48.591 158.932L50.557 158.743 50.595 159.348C47.23 159.65 45.377 160.633 44.961 162.411 45.036 163.205 45.49 163.545 46.322 163.469 48.856 161.881 50.103 160.936 50.066 160.671 54.868 159.764 68.141 152.806 89.884 139.836L89.997 141.008C90.035 141.575 88.182 143.163 84.438 145.886L84.438 145.886ZM51.087 156.852C54.263 156.587 56.986 155.302 59.254 153.071 60.162 152.995 60.654 153.335 60.691 154.129 59.141 154.281 56.154 155.566 51.805 158.062L51.162 158.1 51.087 156.852 51.087 156.852ZM104.896 115.521L88.22 128.756C75.817 136.886 69.162 140.97 68.178 141.046 48.44 151.898 36.15 157.533 31.386 157.949L30.667 158.024C31.272 155.793 40.045 137.832 57.061 104.026 64.548 103.383 76.346 99.904 92.417 93.552L96.35 93.211C104.48 92.493 110.568 94.081 114.576 97.862L114.803 100.32C111.816 108.98 108.488 114.047 104.896 115.521L104.896 115.521ZM72.3 97.182L74.985 96.955 75.023 97.56 72.338 97.787 72.3 97.182 72.3 97.182ZM110.001 90.791L111.967 90.602C113.782 91.472 114.727 92.228 114.803 92.909L114.841 93.514C113.101 93.665 111.475 92.757 110.001 90.791L110.001 90.791ZM115.332 60.427C113.593 62.506 108.828 66.061 101.039 71.052 98.467 71.279 88.9 74.985 72.338 82.245 71.506 81.867 70.636 81.716 69.691 81.791L69.578 80.619C69.389 78.237 70.447 75.25 72.792 71.62 74.077 64.813 75.477 60.918 77.027 59.973L90.829 28.928C90.678 26.999 93.627 25.524 99.677 24.503L101.644 24.314 101.795 26.092C107.732 25.184 111.437 24.655 112.874 24.541 123.841 23.596 129.55 25.827 130.004 31.159L131.252 31.045 130.987 27.907 132.349 27.793C135.563 29.57 137.302 31.726 137.529 34.259 137.68 35.999 136.735 38.154 134.731 40.726 133.899 40.801 133.407 40.196 133.332 38.986L131.97 39.1 131.668 42.881C126.109 51.2 122.063 55.473 119.568 55.7 117.299 58.838 115.9 60.389 115.332 60.427L115.332 60.427ZM123.803 82.17C122.668 81.413 121.761 81.073 121.08 81.111L120.929 79.258 122.177 79.144 124.937 80.771C125.051 81.64 124.672 82.094 123.803 82.17L123.803 82.17ZM132.576 92.568C133.786 93.06 134.504 93.589 134.655 94.081L134.05 94.232 134.088 94.27C133.975 94.27 133.823 94.308 133.71 94.346L132.802 95.064 132.576 92.568 132.576 92.568ZM133.407 97.787L133.294 97.295 134.882 96.917 134.996 97.409 133.407 97.787 133.407 97.787ZM137.227 102.06C138.853 101.795 139.647 101.682 142.672 101.001L142.785 101.492 137.038 102.816C137.113 102.551 137.189 102.287 137.227 102.06L137.227 102.06ZM142.823 104.442C140.403 104.669 140.932 104.366 137.075 105.236L136.962 104.744 141.802 103.194 144.109 102.665 144.336 103.572C143.277 103.799 144.033 103.799 142.823 104.442L142.823 104.442ZM147.928 103.232C147.361 103.383 146.907 103.119 146.642 102.476L148.117 102.135C148.76 101.984 149.176 102.249 149.327 102.892L147.928 103.232 147.928 103.232ZM161.768 88.333L161.654 87.842 164.037 87.274 164.264 88.182 161.768 88.333 161.768 88.333ZM176.553 179.011C176.704 178.33 176.742 177.839 176.666 177.498L177.196 177.385C177.839 177.234 178.217 177.461 178.368 178.066L178.482 178.557 176.553 179.011 176.553 179.011ZM186.914 92.228L185.855 92.039C184.154 92.72 182.717 93.211 181.544 93.476L180.561 93.703C179.994 93.854 179.54 93.627 179.313 93.022L186.233 91.434 188.502 90.375 189.259 91.245C188.162 91.472 187.368 91.812 186.914 92.228L186.914 92.228ZM192.246 90.526L192.132 90.035C192.473 89.959 192.926 89.695 193.418 89.203L198.334 88.068 198.447 88.56C195.838 89.203 193.758 89.846 192.246 90.526L192.246 90.526ZM193.002 80.581C192.662 80.657 192.208 80.959 191.641 81.413 191.565 81.073 190.885 81.073 189.599 81.375 189.372 80.43 193.002 79.107 200.527 77.367L201.586 77.14 201.813 78.048C196.519 79.598 193.569 80.468 193.002 80.581L193.002 80.581ZM206.237 66.288C205.708 72.3 203.59 75.703 199.846 76.573L199.733 76.082 196.405 77.367 194.931 77.708C194.174 77.897 193.494 77.859 192.889 77.67L192.586 76.346C192.473 75.855 197.275 69.199 207.031 56.418L208.165 56.607C208.581 58.347 207.939 61.561 206.237 66.288L206.237 66.288ZM229.644 46.246L229.19 46.284 229.114 45.339 231.081 45.15 231.118 45.641C230.778 45.717 230.287 45.906 229.644 46.246L229.644 46.246ZM220.001 143.088C218.867 142.558 217.846 142.331 216.976 142.407L216.863 140.97C216.825 140.479 217.127 140.138 217.77 139.949 218.413 139.874 218.791 140.327 218.867 141.31 220.493 139.231 221.4 138.172 221.589 138.172L222.61 138.588C222.232 141.462 221.363 142.974 220.001 143.088L220.001 143.088ZM323.384 34.94C322.893 34.978 321.947 33.465 320.473 30.402L320.397 29.457C321.342 29.381 322.326 30.856 323.309 33.881L323.384 34.94 323.384 34.94ZM322.023 24.125L321.569 25.108 307.578 19.247C316.918 19.55 321.758 21.176 322.023 24.125L322.023 24.125ZM262.693 75.061L260.727 75.25 260.651 74.304 262.617 74.115 262.693 75.061 262.693 75.061ZM261.067 44.469L261.596 44.431 261.71 45.868C261.218 45.906 260.613 46.587 259.895 47.91L259.819 46.965C260.689 45.868 261.105 45.036 261.067 44.469L261.067 44.469ZM256.945 54.301L257.097 56.154 256.567 56.192 256.416 54.339 256.945 54.301 256.945 54.301ZM254.714 57.817L255.697 57.742C255.584 59.33 255.168 60.162 254.45 60.237L253.92 60.275C254.487 59.217 254.752 58.385 254.714 57.817L254.714 57.817ZM253.126 62.658L253.58 62.62 253.618 63.111 252.748 64.624 251.765 64.7 251.727 64.208C252.748 64.132 253.202 63.603 253.126 62.658L253.126 62.658ZM251.538 67.044L251.198 69.464 250.744 69.502 250.555 67.12 251.538 67.044 251.538 67.044ZM235.391 112.912C234.749 116.089 234.068 117.715 233.349 117.79L233.312 117.374C233.198 115.786 233.879 114.273 235.391 112.912L235.391 112.912ZM232.404 119.303L232.442 119.719C232.518 120.399 232.215 120.777 231.534 120.815L231.497 120.324C231.459 119.832 231.761 119.492 232.404 119.303L232.404 119.303ZM231.572 132.613L233.085 132.5 233.122 132.991C232.782 133.029 232.253 133.218 231.648 133.559L230.665 133.634C230.627 133.105 230.929 132.765 231.572 132.613L231.572 132.613ZM274.037 119.492C265.718 123.614 260.764 126.412 259.214 127.849 250.139 131.025 245.639 132.991 245.715 133.785 237.66 137 232.366 139.306 229.871 140.781 229.266 140.819 228.396 140.592 227.261 140.063 227.11 138.437 227.866 137.113 229.455 136.13 230.892 136.017 232.253 136.206 233.501 136.735 235.013 135.979 237.622 135.147 241.328 134.201L241.253 133.256 238.19 133.521C238.568 132.991 241.479 131.63 246.887 129.437L248.399 129.323 248.437 129.739C245.866 129.966 244.429 130.723 244.126 132.084 244.164 132.689 244.542 132.991 245.185 132.916 247.076 131.668 247.983 130.949 247.983 130.723 251.614 130.08 261.672 124.786 278.197 114.879L278.272 115.824C278.272 116.202 276.873 117.412 274.037 119.492L274.037 119.492ZM248.702 127.811C251.16 127.584 253.24 126.639 254.979 124.975 255.622 124.937 256 125.202 256.038 125.807 254.903 125.92 252.672 126.866 249.307 128.681L248.778 128.718 248.702 127.811 248.702 127.811ZM289.617 96.388L277.025 106.522C267.609 112.685 262.504 115.786 261.71 115.862 246.736 124.105 237.433 128.378 233.765 128.681L233.236 128.718C233.69 127.017 240.383 113.366 253.315 87.728 258.949 87.237 267.874 84.552 280.125 79.712L283.188 79.447C289.352 78.918 293.965 80.128 296.99 83.039L297.142 84.892C294.835 91.396 292.339 95.215 289.617 96.388L289.617 96.388ZM264.886 82.472L266.853 82.283 266.89 82.775 264.924 82.964 264.886 82.472 264.886 82.472ZM293.511 77.594L295.024 77.481C296.423 78.161 297.142 78.766 297.179 79.258L297.217 79.674C295.894 79.787 294.646 79.107 293.511 77.594L293.511 77.594ZM297.482 54.565C296.158 56.154 292.566 58.876 286.705 62.658 284.739 62.847 277.478 65.645 264.924 71.09 264.319 70.863 263.638 70.788 262.92 70.825L262.844 69.88C262.693 68.065 263.487 65.796 265.227 63.036 266.21 57.817 267.306 54.906 268.441 54.225L278.991 30.629C278.877 29.23 281.108 28.096 285.646 27.226L287.159 27.113 287.272 28.549C291.734 27.831 294.532 27.415 295.667 27.302 303.986 26.583 308.334 28.247 308.675 32.331L309.658 32.255 309.469 29.986 310.452 29.911C312.872 31.234 314.158 32.822 314.309 34.713 314.422 36.074 313.742 37.738 312.305 39.667 311.662 39.742 311.284 39.289 311.208 38.305L310.225 38.381 309.923 41.217C305.725 47.608 302.662 50.897 300.734 51.049 299.032 53.355 297.973 54.528 297.482 54.565L297.482 54.565ZM301.906 70.296L301.793 68.859 302.776 68.784 304.893 70.069C304.931 70.674 304.629 71.015 303.986 71.09 303.078 70.523 302.398 70.258 301.906 70.296L301.906 70.296ZM125.882 162.146L124.899 162.373 124.067 163.091C124.219 163.696 124.597 163.923 125.24 163.772 125.882 163.621 126.147 163.243 125.996 162.638L125.882 162.146 125.882 162.146ZM122.139 154.697L122.252 155.188C122.895 155.037 123.16 154.659 123.009 154.054L122.895 153.562C122.29 153.713 122.025 154.092 122.139 154.697L122.139 154.697ZM148.911 104.404L149.63 103.95C149.478 103.95 149.365 103.912 149.251 103.875 148.987 103.95 148.873 104.139 148.911 104.404L148.911 104.404ZM148.76 91.358L149.894 91.094 149.667 90.11 148.533 90.375 148.76 91.358 148.76 91.358ZM415.991 129.55L413.419 129.248 412.965 130.231 413.003 130.723 428.318 129.437 428.242 128.492 415.991 129.55 415.991 129.55ZM429.982 128.378L430.057 129.323 430.208 129.323 430.133 128.378 429.982 128.378 429.982 128.378ZM494.227 119.983L494.303 120.929 495.967 121.231 495.891 120.286 494.227 119.983 494.227 119.983ZM491.883 120.172C480.388 122.744 478.951 122.29 476.531 122.479L476.606 123.424 477.665 123.349 478.232 123.311 478.081 123.198 479.329 122.706C490.711 121.458 492.034 121.912 491.921 120.626L491.883 120.172 491.883 120.172ZM422.873 103.459L421.852 103.119C421.02 105.349 420.604 106.673 420.642 107.051L420.679 107.467C421.474 107.429 422.192 106.068 422.873 103.459L422.873 103.459ZM409.033 96.01L408.995 95.518 408.466 95.556 407.52 96.161 408.05 97.068C408.768 96.993 409.108 96.652 409.033 96.01L409.033 96.01ZM439.095 127.092L439.019 126.147 438.717 126.185 438.792 127.13 439.095 127.092 439.095 127.092ZM501.488 113.026L502.206 112.95C502.622 112.912 502.811 112.572 502.773 111.967L502.357 111.059C499.748 111.286 498.538 111.4 496.421 112.572L496.383 112.08 493.244 112.383C493.169 111.437 492.904 110.946 492.488 110.984L490.862 111.135C488.971 111.286 488.064 111.211 487.118 111.929 487.081 111.589 486.967 111.437 486.778 111.437L484.963 111.589 483.904 112.194C483.866 111.853 483.753 111.702 483.564 111.702L482.921 112.269 482.883 111.778 480.35 111.589 479.745 111.627 479.82 112.572 481.106 112.912 482.316 112.837C482.732 113.101 483.186 113.177 483.715 113.139L484.774 112.61 484.812 113.026C478.875 114.5 478.913 114.236 474.829 114.916 474.375 114.614 474.035 114.463 473.808 114.5L473.732 114.576C473.279 114.538 473.014 114.236 472.976 113.744L475.094 113.479C475.245 113.479 475.358 113.631 476.53 113.858 478.232 113.026 478.308 112.685 479.215 112.61L479.14 111.664C473.316 112.799 475.661 112.042 468.363 112.685L468.022 112.723 467.947 111.778C477.325 110.643 474.186 111.286 477.4 110.379 477.438 110.719 477.552 110.87 477.741 110.87 478.119 110.492 478.535 110.303 479.026 110.227L479.669 110.19C482.959 109.925 484.056 110.568 490.56 108.753L490.597 109.169 491.656 108.639 492.639 108.564C492.564 107.618 494.001 107.467 494.492 107.429L494.417 106.408C482.997 108.715 480.009 108.072 476.833 108.98L476.795 108.564C473.808 109.093 473.695 108.866 472.938 108.904 472.711 108.942 472.371 109.131 471.993 109.509 471.955 109.169 471.842 109.017 471.615 109.017 471.501 109.017 471.464 109.055 471.426 109.055L461.745 110.643C461.708 110.379 461.594 110.227 461.367 110.265 456.338 111.324 457.699 111.513 450.968 112.118 450.666 112.156 450.25 112.307 449.721 112.647 449.683 112.383 449.531 112.232 449.191 112.269L445.069 112.61 442.309 113.29C442.271 113.026 442.12 112.874 441.78 112.912 440.229 113.328 438.868 113.593 437.771 113.668L437.696 113.668C437.015 113.744 438.036 113.479 437.507 113.253L436.675 113.744C435.465 113.858 436.108 113.668 431.948 113.706 424.65 114.614 425.444 114.727 424.65 114.765L421.927 114.576C421.965 114.841 421.814 115.03 421.511 115.03 418.411 114.614 416.823 114.122 416.785 113.555 417.201 110.606 417.919 109.093 418.94 109.017L419.47 108.98 419.016 109.963 419.545 109.925C420.528 109.395 420.982 108.904 420.944 108.45L420.869 107.429 419.885 107.505 419.81 106.559C419.734 105.841 419.848 105.198 420.112 104.669L422.343 101.076 422.419 102.022 423.478 101.946 423.402 101.001 422.797 100.131C423.591 99.45 424.196 99.072 424.688 99.034L424.65 98.543 423.213 98.656 423.1 97.219C425.974 91.245 427.335 87.766 427.259 86.783L428.28 87.199C428.923 87.161 429.225 86.783 429.188 86.102L428.204 86.178 428.167 85.762C428.091 85.043 428.242 84.363 428.545 83.758 430.095 82.132 430.814 80.506 430.662 78.804 430.965 78.766 431.116 78.918 431.154 79.258 432.478 78.502 433.499 76.497 434.255 73.17 436.599 68.935 439.927 60.464 444.275 47.797 452.595 25.411 452.254 23.029 453.426 17.735L452.443 17.81C452.519 18.491 452.368 19.134 452.065 19.739 451.384 19.474 450.855 19.323 450.477 19.361L450.439 18.945C450.288 17.016 451.082 14.71 452.897 11.987L453.351 11.949 454.183 15.201 455.166 15.126C455.128 14.899 455.393 13.613 455.922 11.231 455.884 10.739 455.506 10.437 454.75 10.399L453.805 11.004C453.729 10.323 453.767 8.546 453.88 5.71L453.388 5.748C452.557 4.916 452.141 4.235 452.103 3.668L446.695 4.197C446.658 3.819 446.469 3.252 446.09 2.533 446.053 2.042 447.263 1.55 449.758 1.059L450.855 1.475 451.876 0.87C451.914 1.21 452.103 1.361 452.481 1.323L453.502 0.718C453.54 1.059 453.729 1.21 454.107 1.172L454.599 1.134 454.523 0.038C453.767 0.113 451.763 0.113 448.586 0L447.565 0.681 447.527 0.076C422.154 2.155 407.747 3.328 404.306 3.668 403.852 3.706 402.075 3.668 398.937 3.592 398.974 4.008 398.596 4.235 397.84 4.311L396.743 3.819 393.038 4.765C392.168 4.84 390.693 4.802 388.651 4.575 388.084 5.029 387.403 5.294 386.571 5.37 386.118 5.407 391.979 5.067 397.424 4.689 396.857 5.143 395.987 5.407 394.777 5.521 393.945 5.596 393.227 5.483 392.622 5.143 391.79 5.521 389.105 6.126 384.605 7.033L383.509 6.617 365.812 9.34C365.131 9 364.337 8.886 363.429 8.962 362.484 9.037 360.896 9.378 358.703 9.983L350.157 13.537 350.799 14.596C351.215 14.558 351.82 14.331 352.539 13.915L355.564 14.18 355.186 17.016C352.388 18.264 350.762 20.117 350.308 22.461 346.111 24.314 344.031 25.638 344.031 26.432L344.069 26.923 344.711 26.886 345.846 26.281 347.169 27.869 347.358 30.062C347.434 30.743 340.363 45.603 326.22 74.645 313.969 102.627 307.54 117.942 306.935 120.702 302.738 121.874 300.318 123.576 299.599 125.845 299.675 126.563 300.923 127.055 303.343 127.244L303.456 128.34 302.36 130.155 302.549 132.349C302.662 133.483 305.725 134.353 311.738 134.958 311.7 134.58 311.889 134.353 312.305 134.315 312.418 135.676 312.04 138.323 311.17 142.256L311.813 142.218C314.309 138.815 315.481 136.47 315.368 135.185L315.897 135.147C316.502 135.109 317.145 135.79 317.901 137.264 317.145 137.567 314.498 143.579 309.96 155.339L310.603 156.398 311.246 156.36C316.805 142.294 320.284 134.504 321.72 133.029 329.019 132.386 341.648 131.101 359.572 129.172L360.707 128.491C360.744 128.87 360.971 129.059 361.387 129.021L362.56 128.907 363.694 128.227C363.732 128.605 363.959 128.794 364.375 128.756L377.95 127.584C381.542 127.281 383.244 126.185 383.092 124.332 383.055 123.84 385.172 123.273 389.445 122.668 389.861 122.63 390.466 122.744 391.298 123.008 391.26 122.668 393.416 122.328 397.727 121.95 397.84 119.681 398.558 118.471 399.844 118.357L399.731 117.261C398.521 117.374 397.159 117.677 395.571 118.206 392.735 118.055 390.92 117.828 390.164 117.563 389.407 117.979 388.84 118.206 388.424 118.244L378.971 118.546 377.836 119.151C377.798 118.811 377.572 118.66 377.156 118.698L376.626 118.735 375.416 119.341C375.378 119 374.395 118.735 372.429 118.471L371.219 119.189 368.875 119.378 368.837 118.773C381.013 117.45 387.025 115.786 386.874 113.82 387.668 113.744 388.084 114.122 388.159 114.916L391.714 114.009 391.601 112.912 362.446 113.706C362.484 114.084 362.295 114.311 361.879 114.349L358.324 114.047C357.417 114.122 356.661 114.387 356.056 114.841L354.732 114.349C351.064 114.652 348.341 115.105 346.526 115.673 344.031 115.484 341.27 115.521 338.207 115.786L331.666 116.353 328.641 116.013C328.489 114.084 332.233 104.593 339.947 87.577 342.178 81.829 344.22 78.237 346.186 76.876 346.602 76.838 347.207 76.989 348.039 77.329L352.69 75.741 355.072 76.119C359.081 75.779 363.732 74.645 369.064 72.678 370.387 72.565 371.37 72.641 372.089 72.943L375.643 72.111 386.231 71.203C390.731 70.825 395.609 69.842 400.903 68.216L400.789 67.12C398.823 67.309 397.802 66.968 397.727 66.174 397.613 64.7 396.176 64.094 393.416 64.321L393.302 63.225 396.214 62.393 403.852 61.75 403.739 60.654C403.436 60.691 401.886 60.654 399.012 60.54L398.899 59.368 401.848 59.103C402.642 59.028 402.983 58.649 402.907 57.893 398.937 58.006 396.932 57.817 396.895 57.288 369.215 58.649 355.337 58.914 355.262 58.044 354.846 58.082 354.278 58.347 353.522 58.801L352.804 57.666C360.139 42.087 364.45 34.221 365.698 34.108 365.736 34.713 365.433 35.696 364.79 37.02L364.828 37.511 366.001 37.398C368.912 30.44 371.37 26.848 373.412 26.697 382.109 25.94 372.202 25.373 390.807 22.461 391.563 22.802 392.092 22.953 392.47 22.915 399.768 21.44 409.94 19.89 422.986 18.302L422.91 17.205 415.953 17.848 415.877 16.751C416.709 16.676 417.39 16.411 417.957 15.957L417.995 16.562C418.373 16.525 418.902 16.26 419.583 15.806 420.793 15.693 421.7 15.806 422.343 16.146 424.763 15.504 426.73 15.125 428.167 14.974L432.515 14.558C433.574 13.878 434.066 13.273 434.028 12.705L433.99 12.214C432.893 12.327 431.646 12.252 430.171 11.987 430.133 11.382 430.435 10.966 431.154 10.777L439.246 10.021 442.952 9.075C442.99 9.491 443.179 9.642 443.481 9.642 443.859 9.605 444.389 9.34 445.069 8.886 445.259 8.924 445.485 8.924 445.674 8.962 445.183 9.983 444.616 11.458 444.048 13.386L442.99 13.462C442.914 12.743 442.725 12.1 442.385 11.533L441.855 11.571C432.024 38.948 427.637 51.692 418.562 72.716 416.898 78.086 415.499 81.073 414.289 81.716 414.327 82.321 414.705 82.623 415.348 82.548 415.575 85.195 414.97 87.804 413.495 90.375 409.297 102.476 406.499 109.093 405.062 110.303L406.008 116.013C406.045 116.618 405.743 116.958 405.1 117.034L404.117 117.11C403.966 115.521 403.398 114.765 402.378 114.879L401.848 114.916C400.562 116.92 399.579 119.227 398.937 121.912L399.92 121.836C401.243 120.967 401.848 119.946 401.735 118.773L403.701 118.584 404.835 119C403.928 120.437 403.512 121.572 403.588 122.441L404.117 123.349 402.831 126.374 402.869 126.866C404.004 126.752 405.251 127.13 406.575 127.924 407.482 127.849 408.466 127.433 409.562 126.714 410.697 126.601 414.932 126.563 422.23 126.563L425.898 125.315C430.36 125.277 431.078 125.391 434.935 125.05L436.523 124.899 437.355 124.332 437.393 124.824C441.439 124.483 441.704 124.748 444.88 125.126L444.918 125.618 442.687 125.807 442.763 126.752C443.443 126.676 444.048 126.487 444.54 126.071 445.107 126.034 445.447 126.336 445.485 127.017 444.578 127.092 443.557 127.319 442.422 127.697L441.439 127.357C439.889 127.773 440.229 127.886 439.17 127.962L437.62 127.66C437.658 127.924 437.507 128.113 437.242 128.113 437.28 128.718 437.62 129.021 438.187 128.983L439.775 128.832 448.057 128.113 451.195 127.433C451.233 127.697 451.346 127.849 451.611 127.811L453.124 127.244 455.96 127.017C458.153 126.828 458.115 126.676 462.88 125.92 462.842 125.618 462.955 125.504 463.182 125.466L463.22 125.882C470.972 124.559 471.463 124.483 472.711 124.067L472.825 124.294C474.753 123.84 473.657 123.954 474.186 123.576 474.224 123.916 474.337 124.067 474.526 124.067L475.888 123.954 475.812 122.933 473.052 122.895 473.014 122.819C472.9 122.857 472.825 122.857 472.711 122.895L472.333 122.895 472.333 122.971C470.48 123.349 470.442 123.084 469.232 123.198L462.312 123.576 462.275 123.084 466.132 122.555 467.531 122.441 468.325 121.874 468.363 122.366C473.808 121.912 475.736 123.273 500.92 117.904 502.282 117.79 502.168 116.656 503.038 114.311 502.584 114.349 502.13 114.236 501.715 114.009 499.635 114.803 498.538 114.425 494.53 115.068 494.19 115.106 493.925 114.803 493.811 114.198L493.773 113.782 497.63 113.895C498.349 113.82 499.748 113.706 501.828 112.534 501.828 112.874 501.034 113.063 501.487 113.026L501.488 113.026ZM315.292 116.013L313.515 116.164C313.439 115.446 314.385 112.723 316.351 108.072L317.523 107.959C317.561 109.055 316.842 111.74 315.292 116.013L315.292 116.013ZM317.448 107.391L317.41 106.9C317.372 106.295 317.75 105.879 318.582 105.69L318.62 106.181C318.658 106.9 318.279 107.316 317.448 107.391L317.448 107.391ZM341.081 125.655L341.119 126.147 338.17 126.412 338.132 125.92 341.081 125.655 341.081 125.655ZM337.527 125.353C337.565 125.958 336.657 126.639 334.691 127.319L331.06 127.055 329.888 127.168 329.775 126.071 337.527 125.353 337.527 125.353ZM361.425 15.352L359.648 15.504 359.61 14.899C359.572 14.294 359.913 13.878 360.669 13.689L361.312 13.651 362.522 14.142C362.559 14.861 362.219 15.277 361.425 15.352L361.425 15.352ZM388.462 10.058L389.029 10.021 389.105 11.117 387.479 11.268C387.441 10.663 387.743 10.248 388.462 10.058L388.462 10.058ZM381.655 12.441L378.971 12.138 378.933 11.647C382.45 11.344 383.622 10.966 385.777 10.361 385.815 10.777 386.193 10.928 386.874 10.853L386.949 11.949 385.891 12.063C385.059 12.138 384.34 12.025 383.735 11.684 383.092 12.1 382.412 12.365 381.655 12.441L381.655 12.441ZM385.021 22.235L384.983 21.743 389.332 21.327 389.37 21.819 385.021 22.235 385.021 22.235ZM389.672 18.453L389.634 17.848 391.752 17.659 391.79 18.264 389.672 18.453 389.672 18.453ZM390.164 11.042L389.596 11.079 390.088 9.907 394.928 9.453 394.966 10.058C393.718 10.172 392.092 10.512 390.164 11.042L390.164 11.042ZM392.622 21.478L392.546 20.382 394.664 20.193C395.382 20.117 395.76 20.457 395.798 21.214L392.622 21.478 392.622 21.478ZM405.44 4.008L402.718 4.765 402.226 4.802C400.941 4.916 399.277 4.878 397.31 4.689 400.827 4.462 404.193 4.197 405.44 4.008L405.44 4.008ZM402.529 16.109L402.567 16.6 398.823 16.941 398.785 16.449 402.529 16.109 402.529 16.109ZM408.655 19.02C408.617 18.567 407.898 18.264 406.424 18.113L402.68 19.172 399.806 19.285C399.163 18.831 398.823 18.529 398.785 18.302L402.113 18.491 409.6 17.281 413.419 17.432 413.457 18.037C411.566 18.226 409.978 18.567 408.655 19.02L408.655 19.02ZM447.187 9.075C447.641 9.113 447.943 9.113 448.057 9.113 449.38 7.827 450.855 6.806 452.557 6.088 451.195 12.063 449.078 16.487 446.166 19.361L444.048 18.075C445.826 13.575 446.885 10.588 447.187 9.075L447.187 9.075ZM440.683 20.23L441.212 20.193C440.494 21.554 439.851 22.272 439.322 22.31L439.208 20.873C439.549 20.873 440.04 20.646 440.683 20.23L440.683 20.23ZM436.486 30.251C437.507 26.167 438.49 23.861 439.397 23.256L439.435 23.747C438.906 27.528 438.074 29.533 436.977 29.684L437.166 32.066C436.259 33.352 435.843 34.335 435.88 35.091L435.351 35.129 435.049 31.839C435.654 31.764 436.145 31.234 436.486 30.251L436.486 30.251ZM434.86 35.696C434.897 36.263 434.519 37.587 433.763 39.629L433.234 39.667 433.12 38.23C433.839 36.566 434.444 35.734 434.859 35.696L434.86 35.696ZM404.344 124.256L404.306 123.84 405.289 123.765 405.403 125.202C404.873 125.24 404.495 124.937 404.344 124.256L404.344 124.256ZM447.943 125.391C447.905 125.05 447.754 124.899 447.414 124.937L444.956 125.164 444.918 124.672 445.145 124.672 450.968 124.181 451.006 124.672C449.305 124.748 448.284 125.013 447.943 125.391L447.943 125.391ZM445.032 124.181C445.259 124.294 445.145 124.408 445.032 124.483 444.918 124.445 444.767 124.332 445.032 124.181L445.032 124.181ZM445.334 117.374L442.082 117.639 442.044 117.147 444.994 116.883 447.565 116.24C447.603 116.542 447.754 116.656 448.095 116.618 451.158 116.089 450.855 115.937 452.33 115.824 452.821 115.786 453.124 116.089 453.162 116.694L445.334 117.374 445.334 117.374ZM456.716 116.391C454.901 116.202 454.788 116.051 453.502 116.164L453.464 115.748 456.376 115.484 456.414 115.9C456.111 115.937 457.208 116.013 456.716 116.391L456.716 116.391ZM456.943 115.862L456.905 115.446 458.493 115.294 458.531 115.71 456.943 115.862 456.943 115.862ZM460.46 115.559L460.422 115.143C460.687 115.106 461.065 114.916 461.556 114.538 462.35 114.463 462.766 114.992 462.842 115.597L460.46 115.559 460.46 115.559ZM464.96 114.992L464.922 114.5 466.85 114.349 466.888 114.841 464.96 114.992 464.96 114.992ZM467.644 114.765C467.607 114.198 467.833 113.858 468.325 113.782L468.968 114.614C468.93 114.349 469.043 114.198 469.27 114.16L469.762 115.068 467.644 114.765 467.644 114.765ZM504.853 110.379L504.891 110.341 504.891 110.303C504.891 110.303 504.853 110.341 504.853 110.379L504.853 110.379ZM505.534 109.887C505.836 109.698 505.988 109.509 505.269 109.396 504.929 109.774 505.647 109.887 504.891 109.925L504.929 110.265C505.004 110.19 505.194 110.076 505.345 109.963L504.929 110.303 504.929 110.341 504.135 111.362 505.723 110.795 505.912 110.795 505.836 109.849 505.534 109.887 505.534 109.887ZM508.294 112.043L507.992 112.08 508.067 113.026 510.298 112.837C510.261 112.232 508.786 112.043 508.294 112.043L508.294 112.043Z" fill="#F9DC3E"/></g></svg>
