<svg xmlns="http://www.w3.org/2000/svg" id="svg2" xml:space="preserve" height="288.92" width="155.11" version="1.1" viewBox="0 0 155.10814 288.91885"><metadata id="metadata8"/><g id="g10" transform="matrix(1.25 0 0 -1.25 -245.24 588.56)"><path id="path156" d="m274.21 470.8c3.625-4.128 4.822-10.033 3.781-15.358-1.121-5.981-4.439-11.268-8.336-15.822-3.125-3.666-6.715-6.907-10.457-9.917-4.361-3.512-8.645-7.293-11.384-12.233-2.316-4.013-2.856-8.952-1.274-13.313 2.585-7.486 8.606-13.043 11.886-20.105-3.628 3.203-7.178 6.522-10.497 10.033-3.473 3.705-6.753 7.641-8.914 12.272-1.466 3.242-2.122 7.023-1.003 10.457 1.119 3.512 3.627 6.329 6.136 8.953 6.984 6.985 15.589 12.117 22.419 19.217 3.784 3.898 6.909 8.567 7.989 13.931 0.888 3.936 0.463 7.988-0.346 11.885M274.21 470.8 274.21 470.8" fill="#e9232e"/><path id="path158" d="m274.21 470.8c3.625-4.128 4.822-10.033 3.781-15.358-1.121-5.981-4.439-11.268-8.336-15.822-3.125-3.666-6.715-6.907-10.457-9.917-4.361-3.512-8.645-7.293-11.384-12.233-2.316-4.013-2.856-8.952-1.274-13.313 2.585-7.486 8.606-13.043 11.886-20.105-3.628 3.203-7.178 6.522-10.497 10.033-3.473 3.705-6.753 7.641-8.914 12.272-1.466 3.242-2.122 7.023-1.003 10.457 1.119 3.512 3.627 6.329 6.136 8.953 6.984 6.985 15.589 12.117 22.419 19.217 3.784 3.898 6.909 8.567 7.989 13.931 0.888 3.936 0.463 7.988-0.346 11.885z" stroke="#e9232e" stroke-miterlimit="10" stroke-width=".09375" fill="none"/><path id="path160" d="m268.5 426.85c7.486 5.519 16.246 9.03 25.121 11.577-7.021-4.476-14.353-8.566-20.412-14.316-2.201-2.122-4.283-4.554-5.248-7.525-0.734-2.2-0.426-4.631 0.463-6.715 1.621-3.704 4.359-6.714 6.443-10.11 1.776-2.894 2.084-6.599 0.735-9.725-2.047-4.592-6.059-7.949-10.227-10.611-0.541-0.309-1.004-0.888-1.66-0.965 2.779 2.508 4.939 6.058 4.863 9.879-0.078 2.855-1.66 5.363-3.512 7.409-3.82 4.553-7.023 10.342-6.367 16.477 0.656 6.136 5.055 11.075 9.801 14.625" fill="#e9232e"/><path id="path162" d="m268.5 426.85c7.486 5.519 16.246 9.03 25.121 11.577-7.021-4.476-14.353-8.566-20.412-14.316-2.201-2.122-4.283-4.554-5.248-7.525-0.734-2.2-0.426-4.631 0.463-6.715 1.621-3.704 4.359-6.714 6.443-10.11 1.776-2.894 2.084-6.599 0.735-9.725-2.047-4.592-6.059-7.949-10.227-10.611-0.541-0.309-1.004-0.888-1.66-0.965 2.779 2.508 4.939 6.058 4.863 9.879-0.078 2.855-1.66 5.363-3.512 7.409-3.82 4.553-7.023 10.342-6.367 16.477 0.656 6.136 5.055 11.075 9.801 14.625z" stroke="#e9232e" stroke-miterlimit="10" stroke-width=".09375" fill="none"/><path id="path164" d="m295.05 382.24c1.619 1.968 4.205 2.47 6.558 2.779 4.092 0.54 8.452-0.502 11.539-3.319 2.547-2.276 3.975-5.827 3.434-9.261-0.578-3.975-3.242-7.294-6.25-9.802-5.441-4.36-12.156-6.907-18.871-8.605 0.387 0.425 0.811 0.81 1.312 1.119 5.094 2.74 10.149 5.942 13.893 10.419 2.275 2.778 4.051 6.406 3.318 10.072-0.771 4.244-4.9 7.332-9.107 7.563-2.008 0.193-3.897-0.579-5.826-0.965" fill="#3471c0"/><path id="path166" d="m295.05 382.24c1.619 1.968 4.205 2.47 6.558 2.779 4.092 0.54 8.452-0.502 11.539-3.319 2.547-2.276 3.975-5.827 3.434-9.261-0.578-3.975-3.242-7.294-6.25-9.802-5.441-4.36-12.156-6.907-18.871-8.605 0.387 0.425 0.811 0.81 1.312 1.119 5.094 2.74 10.149 5.942 13.893 10.419 2.275 2.778 4.051 6.406 3.318 10.072-0.771 4.244-4.9 7.332-9.107 7.563-2.008 0.193-3.897-0.579-5.826-0.965z" stroke="#3471c0" stroke-miterlimit="10" stroke-width=".09375" fill="none"/><path id="path168" d="m217.48 378.73c7.1 3.048 14.818 5.016 22.574 4.901-4.515-1.312-9.145-2.431-13.39-4.438-1.003-0.54-2.161-1.042-2.74-2.084-0.308-0.81 0.54-1.35 1.157-1.62 2.624-1.081 5.519-1.236 8.336-1.506 9.878-0.656 19.796-0.27 29.638 0.348 9.722 0.617 19.371 1.929 28.978 3.473-2.121-1.004-4.283-2.007-6.25-3.28-1.004-0.695-2.238-0.888-3.357-1.158-11.809-2.624-23.927-3.435-35.966-3.627-4.67-0.039-9.299 0.038-13.93 0.347-5.171 0.347-10.381 0.733-15.436 2.084-1.467 0.424-3.01 0.887-4.168 1.929-0.579 0.463-0.579 1.39-0.077 1.929 1.273 1.313 3.049 1.93 4.631 2.702" fill="#3471c0"/><path id="path170" d="m217.48 378.73c7.1 3.048 14.818 5.016 22.574 4.901-4.515-1.312-9.145-2.431-13.39-4.438-1.003-0.54-2.161-1.042-2.74-2.084-0.308-0.81 0.54-1.35 1.157-1.62 2.624-1.081 5.519-1.236 8.336-1.506 9.878-0.656 19.796-0.27 29.638 0.348 9.722 0.617 19.371 1.929 28.978 3.473-2.121-1.004-4.283-2.007-6.25-3.28-1.004-0.695-2.238-0.888-3.357-1.158-11.809-2.624-23.927-3.435-35.966-3.627-4.67-0.039-9.299 0.038-13.93 0.347-5.171 0.347-10.381 0.733-15.436 2.084-1.467 0.424-3.01 0.887-4.168 1.929-0.579 0.463-0.579 1.39-0.077 1.929 1.273 1.313 3.049 1.93 4.631 2.702z" stroke="#3471c0" stroke-miterlimit="10" stroke-width=".09375" fill="none"/><path id="path172" d="m226.59 362.25c2.007 1.582 4.4 2.47 6.792 3.319-0.771-0.926-1.852-1.814-1.929-3.087-0.038-0.81 0.618-1.428 1.273-1.814 1.273-0.656 2.701-0.888 4.13-1.08 7.408-0.772 14.894-1.197 22.381-0.695 6.829 0.347 13.622 1.467 20.376 2.663 1.852-1.737 4.051-2.933 6.367-3.975-8.144-2.392-16.517-3.782-24.929-4.438-7.949-0.54-16.014-0.502-23.926 0.773-3.126 0.578-6.328 1.234-9.183 2.7-1.158 0.618-2.47 1.428-2.818 2.779-0.231 1.157 0.618 2.199 1.466 2.855" fill="#3471c0"/><path id="path174" d="m226.59 362.25c2.007 1.582 4.4 2.47 6.792 3.319-0.771-0.926-1.852-1.814-1.929-3.087-0.038-0.81 0.618-1.428 1.273-1.814 1.273-0.656 2.701-0.888 4.13-1.08 7.408-0.772 14.894-1.197 22.381-0.695 6.829 0.347 13.622 1.467 20.376 2.663 1.852-1.737 4.051-2.933 6.367-3.975-8.144-2.392-16.517-3.782-24.929-4.438-7.949-0.54-16.014-0.502-23.926 0.773-3.126 0.578-6.328 1.234-9.183 2.7-1.158 0.618-2.47 1.428-2.818 2.779-0.231 1.157 0.618 2.199 1.466 2.855z" stroke="#3471c0" stroke-miterlimit="10" stroke-width=".09375" fill="none"/><path id="path176" d="m231.07 345.43c1.775 1.428 3.974 2.162 6.136 2.779-0.695-0.655-1.93-1.466-1.389-2.585 1.042-1.352 2.971-1.506 4.515-1.854 6.521-0.809 13.12-1.349 19.642-0.847 4.939 0.308 9.8 1.195 14.625 2.045 2.777-1.622 5.672-3.01 8.642-4.246-4.552-2.044-9.453-3.356-14.353-4.283-8.258-1.466-16.787-1.659-25.084-0.347-3.666 0.656-7.409 1.504-10.727 3.319-1.274 0.732-2.624 1.582-3.164 3.01-0.425 1.119 0.269 2.314 1.157 3.009" fill="#3471c0"/><path id="path178" d="m231.07 345.43c1.775 1.428 3.974 2.162 6.136 2.779-0.695-0.655-1.93-1.466-1.389-2.585 1.042-1.352 2.971-1.506 4.515-1.854 6.521-0.809 13.12-1.349 19.642-0.847 4.939 0.308 9.8 1.195 14.625 2.045 2.777-1.622 5.672-3.01 8.642-4.246-4.552-2.044-9.453-3.356-14.353-4.283-8.258-1.466-16.787-1.659-25.084-0.347-3.666 0.656-7.409 1.504-10.727 3.319-1.274 0.732-2.624 1.582-3.164 3.01-0.425 1.119 0.269 2.314 1.157 3.009z" stroke="#3471c0" stroke-miterlimit="10" stroke-width=".09375" fill="none"/><path id="path180" d="m209.65 334.51c3.551 1.196 7.217 2.161 10.96 2.276 1.505 0.039 3.048-0.038 4.36-0.81-4.476-0.27-8.953-1.389-12.966-3.434-0.887-0.502-1.891-1.081-2.238-2.123 0-1.196 1.351-1.582 2.238-1.967 5.596-2.084 11.577-2.74 17.443-3.358 17.48-1.466 35.076-1.081 52.557 0.502 6.599 0.733 13.236 1.466 19.642 3.28 2.045 0.695 4.36 1.388 5.711 3.203 0.811 1.08 0.272 2.431-0.539 3.357 1.311-0.734 3.164-1.66 2.895-3.435-0.502-1.852-2.395-2.817-3.938-3.704-4.939-2.509-10.38-3.783-15.783-4.901-15.705-3.087-31.797-3.782-47.773-3.319-12.04 0.426-24.079 1.583-35.965 3.627-2.122 0.502-4.514 0.928-6.058 2.586-1.003 1.158-0.116 2.779 0.848 3.627 2.432 2.238 5.558 3.473 8.606 4.593" fill="#3471c0"/><path id="path182" d="m209.65 334.51c3.551 1.196 7.217 2.161 10.96 2.276 1.505 0.039 3.048-0.038 4.36-0.81-4.476-0.27-8.953-1.389-12.966-3.434-0.887-0.502-1.891-1.081-2.238-2.123 0-1.196 1.351-1.582 2.238-1.967 5.596-2.084 11.577-2.74 17.443-3.358 17.48-1.466 35.076-1.081 52.557 0.502 6.599 0.733 13.236 1.466 19.642 3.28 2.045 0.695 4.36 1.388 5.711 3.203 0.811 1.08 0.272 2.431-0.539 3.357 1.311-0.734 3.164-1.66 2.895-3.435-0.502-1.852-2.395-2.817-3.938-3.704-4.939-2.509-10.38-3.783-15.783-4.901-15.705-3.087-31.797-3.782-47.773-3.319-12.04 0.426-24.079 1.583-35.965 3.627-2.122 0.502-4.514 0.928-6.058 2.586-1.003 1.158-0.116 2.779 0.848 3.627 2.432 2.238 5.558 3.473 8.606 4.593z" stroke="#3471c0" stroke-miterlimit="10" stroke-width=".09375" fill="none"/><path id="path184" d="m305.82 321.31c3.899 1.351 8.065 2.779 10.959 5.866-0.502-3.357-3.396-5.673-6.252-7.177-5.478-2.857-11.615-4.168-17.71-5.248-12.891-2.046-25.971-2.547-39.054-2.317-8.914 0.271-17.905 0.618-26.665 2.471-2.084 0.578-4.322 0.965-6.135 2.199 7.794-1.312 15.706-1.853 23.617-2.161 13.004-0.386 26.047 0.115 38.975 1.737 7.486 1.041 15.01 2.315 22.265 4.63" fill="#3471c0"/><path id="path186" d="m305.82 321.31c3.899 1.351 8.065 2.779 10.959 5.866-0.502-3.357-3.396-5.673-6.252-7.177-5.478-2.857-11.615-4.168-17.71-5.248-12.891-2.046-25.971-2.547-39.054-2.317-8.914 0.271-17.905 0.618-26.665 2.471-2.084 0.578-4.322 0.965-6.135 2.199 7.794-1.312 15.706-1.853 23.617-2.161 13.004-0.386 26.047 0.115 38.975 1.737 7.486 1.041 15.01 2.315 22.265 4.63z" stroke="#3471c0" stroke-miterlimit="10" stroke-width=".09375" fill="none"/></g></svg>
